<?xml version="1.0" encoding="utf-8" standalone="no"?>
<!DOCTYPE svg PUBLIC "-//W3C//DTD SVG 1.1//EN"
  "http://www.w3.org/Graphics/SVG/1.1/DTD/svg11.dtd">
<svg xmlns:xlink="http://www.w3.org/1999/xlink" width="462.755478pt" height="131.939447pt" viewBox="0 0 462.755478 131.939447" xmlns="http://www.w3.org/2000/svg" version="1.1">
 <metadata>
  <rdf:RDF xmlns:dc="http://purl.org/dc/elements/1.1/" xmlns:cc="http://creativecommons.org/ns#" xmlns:rdf="http://www.w3.org/1999/02/22-rdf-syntax-ns#">
   <cc:Work>
    <dc:type rdf:resource="http://purl.org/dc/dcmitype/StillImage"/>
    <dc:date>2024-02-06T11:49:42.728565</dc:date>
    <dc:format>image/svg+xml</dc:format>
    <dc:creator>
     <cc:Agent>
      <dc:title>Matplotlib v3.7.1, https://matplotlib.org/</dc:title>
     </cc:Agent>
    </dc:creator>
   </cc:Work>
  </rdf:RDF>
 </metadata>
 <defs>
  <style type="text/css">*{stroke-linejoin: round; stroke-linecap: butt}</style>
 </defs>
 <g id="figure_1">
  <g id="patch_1">
   <path d="M 0 131.939447 
L 462.755478 131.939447 
L 462.755478 -0 
L 0 -0 
L 0 131.939447 
z
" style="fill: none"/>
  </g>
  <g id="axes_1">
   <g id="patch_2">
    <path d="M 39.41625 85.838127 
L 102.183404 85.838127 
L 102.183404 20.357812 
L 39.41625 20.357812 
L 39.41625 85.838127 
z
" style="fill: none"/>
   </g>
   <g id="matplotlib.axis_1">
    <g id="xtick_1">
     <g id="line2d_1">
      <defs>
       <path id="m3980118b55" d="M 0 0 
L 0 3.5 
" style="stroke: #000000; stroke-width: 0.8"/>
      </defs>
      <g>
       <use xlink:href="#m3980118b55" x="42.269302" y="85.838127" style="stroke: #000000; stroke-width: 0.8"/>
      </g>
     </g>
     <g id="text_1">
      <!-- 1% -->
      <g transform="translate(39.169973 104.656921) rotate(-40) scale(0.08 -0.08)">
       <defs>
        <path id="ArialMT-31" d="M 2384 0 
L 1822 0 
L 1822 3584 
Q 1619 3391 1289 3197 
Q 959 3003 697 2906 
L 697 3450 
Q 1169 3672 1522 3987 
Q 1875 4303 2022 4600 
L 2384 4600 
L 2384 0 
z
" transform="scale(0.015625)"/>
        <path id="ArialMT-25" d="M 372 3481 
Q 372 3972 619 4315 
Q 866 4659 1334 4659 
Q 1766 4659 2048 4351 
Q 2331 4044 2331 3447 
Q 2331 2866 2045 2552 
Q 1759 2238 1341 2238 
Q 925 2238 648 2547 
Q 372 2856 372 3481 
z
M 1350 4272 
Q 1141 4272 1002 4090 
Q 863 3909 863 3425 
Q 863 2984 1003 2804 
Q 1144 2625 1350 2625 
Q 1563 2625 1702 2806 
Q 1841 2988 1841 3469 
Q 1841 3913 1700 4092 
Q 1559 4272 1350 4272 
z
M 1353 -169 
L 3859 4659 
L 4316 4659 
L 1819 -169 
L 1353 -169 
z
M 3334 1075 
Q 3334 1569 3581 1911 
Q 3828 2253 4300 2253 
Q 4731 2253 5014 1945 
Q 5297 1638 5297 1041 
Q 5297 459 5011 145 
Q 4725 -169 4303 -169 
Q 3888 -169 3611 142 
Q 3334 453 3334 1075 
z
M 4316 1866 
Q 4103 1866 3964 1684 
Q 3825 1503 3825 1019 
Q 3825 581 3965 400 
Q 4106 219 4313 219 
Q 4528 219 4667 400 
Q 4806 581 4806 1063 
Q 4806 1506 4665 1686 
Q 4525 1866 4316 1866 
z
" transform="scale(0.015625)"/>
       </defs>
       <use xlink:href="#ArialMT-31"/>
       <use xlink:href="#ArialMT-25" x="55.615234"/>
      </g>
     </g>
    </g>
    <g id="xtick_2">
     <g id="line2d_2">
      <g>
       <use xlink:href="#m3980118b55" x="70.799827" y="85.838127" style="stroke: #000000; stroke-width: 0.8"/>
      </g>
     </g>
     <g id="text_2">
      <!-- 10% -->
      <g transform="translate(65.996528 107.516523) rotate(-40) scale(0.08 -0.08)">
       <defs>
        <path id="ArialMT-30" d="M 266 2259 
Q 266 3072 433 3567 
Q 600 4063 929 4331 
Q 1259 4600 1759 4600 
Q 2128 4600 2406 4451 
Q 2684 4303 2865 4023 
Q 3047 3744 3150 3342 
Q 3253 2941 3253 2259 
Q 3253 1453 3087 958 
Q 2922 463 2592 192 
Q 2263 -78 1759 -78 
Q 1097 -78 719 397 
Q 266 969 266 2259 
z
M 844 2259 
Q 844 1131 1108 757 
Q 1372 384 1759 384 
Q 2147 384 2411 759 
Q 2675 1134 2675 2259 
Q 2675 3391 2411 3762 
Q 2147 4134 1753 4134 
Q 1366 4134 1134 3806 
Q 844 3388 844 2259 
z
" transform="scale(0.015625)"/>
       </defs>
       <use xlink:href="#ArialMT-31"/>
       <use xlink:href="#ArialMT-30" x="55.615234"/>
       <use xlink:href="#ArialMT-25" x="111.230469"/>
      </g>
     </g>
    </g>
    <g id="xtick_3">
     <g id="line2d_3">
      <g>
       <use xlink:href="#m3980118b55" x="90.741808" y="85.838127" style="stroke: #000000; stroke-width: 0.8"/>
      </g>
     </g>
     <g id="text_3">
      <!-- 50% -->
      <g transform="translate(85.938509 107.516523) rotate(-40) scale(0.08 -0.08)">
       <defs>
        <path id="ArialMT-35" d="M 266 1200 
L 856 1250 
Q 922 819 1161 601 
Q 1400 384 1738 384 
Q 2144 384 2425 690 
Q 2706 997 2706 1503 
Q 2706 1984 2436 2262 
Q 2166 2541 1728 2541 
Q 1456 2541 1237 2417 
Q 1019 2294 894 2097 
L 366 2166 
L 809 4519 
L 3088 4519 
L 3088 3981 
L 1259 3981 
L 1013 2750 
Q 1425 3038 1878 3038 
Q 2478 3038 2890 2622 
Q 3303 2206 3303 1553 
Q 3303 931 2941 478 
Q 2500 -78 1738 -78 
Q 1113 -78 717 272 
Q 322 622 266 1200 
z
" transform="scale(0.015625)"/>
       </defs>
       <use xlink:href="#ArialMT-35"/>
       <use xlink:href="#ArialMT-30" x="55.615234"/>
       <use xlink:href="#ArialMT-25" x="111.230469"/>
      </g>
     </g>
    </g>
    <g id="xtick_4">
     <g id="line2d_4">
      <g>
       <use xlink:href="#m3980118b55" x="99.330352" y="85.838127" style="stroke: #000000; stroke-width: 0.8"/>
      </g>
     </g>
     <g id="text_4">
      <!-- 100% -->
      <g transform="translate(92.823082 110.376124) rotate(-40) scale(0.08 -0.08)">
       <use xlink:href="#ArialMT-31"/>
       <use xlink:href="#ArialMT-30" x="55.615234"/>
       <use xlink:href="#ArialMT-30" x="111.230469"/>
       <use xlink:href="#ArialMT-25" x="166.845703"/>
      </g>
     </g>
    </g>
    <g id="xtick_5">
     <g id="line2d_5">
      <defs>
       <path id="m5e0ce3d0eb" d="M 0 0 
L 0 2 
" style="stroke: #000000; stroke-width: 0.6"/>
      </defs>
      <g>
       <use xlink:href="#m5e0ce3d0eb" x="39.504409" y="85.838127" style="stroke: #000000; stroke-width: 0.6"/>
      </g>
     </g>
    </g>
    <g id="xtick_6">
     <g id="line2d_6">
      <g>
       <use xlink:href="#m5e0ce3d0eb" x="40.963817" y="85.838127" style="stroke: #000000; stroke-width: 0.6"/>
      </g>
     </g>
    </g>
    <g id="xtick_7">
     <g id="line2d_7">
      <g>
       <use xlink:href="#m5e0ce3d0eb" x="50.857846" y="85.838127" style="stroke: #000000; stroke-width: 0.6"/>
      </g>
     </g>
    </g>
    <g id="xtick_8">
     <g id="line2d_8">
      <g>
       <use xlink:href="#m5e0ce3d0eb" x="55.881822" y="85.838127" style="stroke: #000000; stroke-width: 0.6"/>
      </g>
     </g>
    </g>
    <g id="xtick_9">
     <g id="line2d_9">
      <g>
       <use xlink:href="#m5e0ce3d0eb" x="59.44639" y="85.838127" style="stroke: #000000; stroke-width: 0.6"/>
      </g>
     </g>
    </g>
    <g id="xtick_10">
     <g id="line2d_10">
      <g>
       <use xlink:href="#m5e0ce3d0eb" x="62.211283" y="85.838127" style="stroke: #000000; stroke-width: 0.6"/>
      </g>
     </g>
    </g>
    <g id="xtick_11">
     <g id="line2d_11">
      <g>
       <use xlink:href="#m5e0ce3d0eb" x="64.470366" y="85.838127" style="stroke: #000000; stroke-width: 0.6"/>
      </g>
     </g>
    </g>
    <g id="xtick_12">
     <g id="line2d_12">
      <g>
       <use xlink:href="#m5e0ce3d0eb" x="66.380393" y="85.838127" style="stroke: #000000; stroke-width: 0.6"/>
      </g>
     </g>
    </g>
    <g id="xtick_13">
     <g id="line2d_13">
      <g>
       <use xlink:href="#m5e0ce3d0eb" x="68.034934" y="85.838127" style="stroke: #000000; stroke-width: 0.6"/>
      </g>
     </g>
    </g>
    <g id="xtick_14">
     <g id="line2d_14">
      <g>
       <use xlink:href="#m5e0ce3d0eb" x="69.494342" y="85.838127" style="stroke: #000000; stroke-width: 0.6"/>
      </g>
     </g>
    </g>
    <g id="xtick_15">
     <g id="line2d_15">
      <g>
       <use xlink:href="#m5e0ce3d0eb" x="79.388371" y="85.838127" style="stroke: #000000; stroke-width: 0.6"/>
      </g>
     </g>
    </g>
    <g id="xtick_16">
     <g id="line2d_16">
      <g>
       <use xlink:href="#m5e0ce3d0eb" x="84.412347" y="85.838127" style="stroke: #000000; stroke-width: 0.6"/>
      </g>
     </g>
    </g>
    <g id="xtick_17">
     <g id="line2d_17">
      <g>
       <use xlink:href="#m5e0ce3d0eb" x="87.976914" y="85.838127" style="stroke: #000000; stroke-width: 0.6"/>
      </g>
     </g>
    </g>
    <g id="xtick_18">
     <g id="line2d_18">
      <g>
       <use xlink:href="#m5e0ce3d0eb" x="93.00089" y="85.838127" style="stroke: #000000; stroke-width: 0.6"/>
      </g>
     </g>
    </g>
    <g id="xtick_19">
     <g id="line2d_19">
      <g>
       <use xlink:href="#m5e0ce3d0eb" x="94.910917" y="85.838127" style="stroke: #000000; stroke-width: 0.6"/>
      </g>
     </g>
    </g>
    <g id="xtick_20">
     <g id="line2d_20">
      <g>
       <use xlink:href="#m5e0ce3d0eb" x="96.565458" y="85.838127" style="stroke: #000000; stroke-width: 0.6"/>
      </g>
     </g>
    </g>
    <g id="xtick_21">
     <g id="line2d_21">
      <g>
       <use xlink:href="#m5e0ce3d0eb" x="98.024866" y="85.838127" style="stroke: #000000; stroke-width: 0.6"/>
      </g>
     </g>
    </g>
   </g>
   <g id="matplotlib.axis_2">
    <g id="ytick_1">
     <g id="line2d_22">
      <defs>
       <path id="m16c04dd7ef" d="M 0 0 
L -3.5 0 
" style="stroke: #000000; stroke-width: 0.8"/>
      </defs>
      <g>
       <use xlink:href="#m16c04dd7ef" x="39.41625" y="85.838127" style="stroke: #000000; stroke-width: 0.8"/>
      </g>
     </g>
     <g id="text_5">
      <!-- 0.0 -->
      <g transform="translate(18.51625 89.417034) scale(0.1 -0.1)">
       <defs>
        <path id="ArialMT-2e" d="M 581 0 
L 581 641 
L 1222 641 
L 1222 0 
L 581 0 
z
" transform="scale(0.015625)"/>
       </defs>
       <use xlink:href="#ArialMT-30"/>
       <use xlink:href="#ArialMT-2e" x="55.615234"/>
       <use xlink:href="#ArialMT-30" x="83.398438"/>
      </g>
     </g>
    </g>
    <g id="ytick_2">
     <g id="line2d_23">
      <g>
       <use xlink:href="#m16c04dd7ef" x="39.41625" y="53.09797" style="stroke: #000000; stroke-width: 0.8"/>
      </g>
     </g>
     <g id="text_6">
      <!-- 0.5 -->
      <g transform="translate(18.51625 56.676876) scale(0.1 -0.1)">
       <use xlink:href="#ArialMT-30"/>
       <use xlink:href="#ArialMT-2e" x="55.615234"/>
       <use xlink:href="#ArialMT-35" x="83.398438"/>
      </g>
     </g>
    </g>
    <g id="ytick_3">
     <g id="line2d_24">
      <g>
       <use xlink:href="#m16c04dd7ef" x="39.41625" y="20.357812" style="stroke: #000000; stroke-width: 0.8"/>
      </g>
     </g>
     <g id="text_7">
      <!-- 1.0 -->
      <g transform="translate(18.51625 23.936719) scale(0.1 -0.1)">
       <use xlink:href="#ArialMT-31"/>
       <use xlink:href="#ArialMT-2e" x="55.615234"/>
       <use xlink:href="#ArialMT-30" x="83.398438"/>
      </g>
     </g>
    </g>
    <g id="text_8">
     <!-- PPV -->
     <g transform="translate(12.92625 61.102345) rotate(-90) scale(0.08 -0.08)">
      <defs>
       <path id="ArialMT-50" d="M 494 0 
L 494 4581 
L 2222 4581 
Q 2678 4581 2919 4538 
Q 3256 4481 3484 4323 
Q 3713 4166 3852 3881 
Q 3991 3597 3991 3256 
Q 3991 2672 3619 2267 
Q 3247 1863 2275 1863 
L 1100 1863 
L 1100 0 
L 494 0 
z
M 1100 2403 
L 2284 2403 
Q 2872 2403 3119 2622 
Q 3366 2841 3366 3238 
Q 3366 3525 3220 3729 
Q 3075 3934 2838 4000 
Q 2684 4041 2272 4041 
L 1100 4041 
L 1100 2403 
z
" transform="scale(0.015625)"/>
       <path id="ArialMT-56" d="M 1803 0 
L 28 4581 
L 684 4581 
L 1875 1253 
Q 2019 853 2116 503 
Q 2222 878 2363 1253 
L 3600 4581 
L 4219 4581 
L 2425 0 
L 1803 0 
z
" transform="scale(0.015625)"/>
      </defs>
      <use xlink:href="#ArialMT-50"/>
      <use xlink:href="#ArialMT-50" x="66.699219"/>
      <use xlink:href="#ArialMT-56" x="133.398438"/>
     </g>
    </g>
   </g>
   <g id="line2d_25">
    <path d="M 42.269302 80.716762 
L 42.845677 80.490449 
L 43.422051 80.254942 
L 43.998425 80.00994 
L 44.574799 79.755137 
L 45.151174 79.490228 
L 45.727548 79.214901 
L 46.303922 78.928847 
L 46.880296 78.631753 
L 47.456671 78.323307 
L 48.033045 78.003201 
L 48.609419 77.671127 
L 49.185793 77.326779 
L 49.762168 76.969858 
L 50.338542 76.600071 
L 50.914916 76.217131 
L 51.49129 75.82076 
L 52.067664 75.41069 
L 52.644039 74.986667 
L 53.220413 74.548447 
L 53.796787 74.095804 
L 54.373161 73.628527 
L 54.949536 73.146427 
L 55.52591 72.649332 
L 56.102284 72.137096 
L 56.678658 71.609595 
L 57.255033 71.066732 
L 57.831407 70.508441 
L 58.407781 69.934683 
L 58.984155 69.345454 
L 59.560529 68.740782 
L 60.136904 68.120733 
L 60.713278 67.485407 
L 61.289652 66.834947 
L 61.866026 66.169534 
L 62.442401 65.48939 
L 63.018775 64.794781 
L 63.595149 64.086017 
L 64.171523 63.363449 
L 64.747898 62.627474 
L 65.324272 61.878535 
L 65.900646 61.117117 
L 66.47702 60.343748 
L 67.053395 59.559002 
L 67.629769 58.763493 
L 68.206143 57.957875 
L 68.782517 57.142843 
L 69.358891 56.319126 
L 69.935266 55.48749 
L 70.51164 54.648733 
L 71.088014 53.80368 
L 71.664388 52.953185 
L 72.240763 52.098123 
L 72.817137 51.239388 
L 73.393511 50.377892 
L 73.969885 49.514556 
L 74.54626 48.650312 
L 75.122634 47.786092 
L 75.699008 46.922832 
L 76.275382 46.061461 
L 76.851757 45.202902 
L 77.428131 44.348063 
L 78.004505 43.497839 
L 78.580879 42.653105 
L 79.157253 41.814711 
L 79.733628 40.983482 
L 80.310002 40.160215 
L 80.886376 39.345672 
L 81.46275 38.540582 
L 82.039125 37.745637 
L 82.615499 36.961489 
L 83.191873 36.188751 
L 83.768247 35.427993 
L 84.344622 34.679741 
L 84.920996 33.944479 
L 85.49737 33.222646 
L 86.073744 32.514636 
L 86.650118 31.8208 
L 87.226493 31.141444 
L 87.802867 30.476832 
L 88.379241 29.827184 
L 88.955615 29.19268 
L 89.53199 28.573457 
L 90.108364 27.969617 
L 90.684738 27.381222 
L 91.261112 26.808299 
L 91.837487 26.250841 
L 92.413861 25.708809 
L 92.990235 25.182134 
L 93.566609 24.670718 
L 94.142984 24.174436 
L 94.719358 23.69314 
L 95.295732 23.226658 
L 95.872106 22.774798 
L 96.44848 22.33735 
L 97.024855 21.914085 
L 97.601229 21.504761 
L 98.177603 21.109122 
L 98.753977 20.726898 
L 99.330352 20.357812 
" clip-path="url(#pd89ed706f0)" style="fill: none; stroke: #fe9d08; stroke-opacity: 0.5; stroke-width: 1.5; stroke-linecap: square"/>
   </g>
   <g id="line2d_26">
    <path d="M 42.269302 84.413271 
L 42.845677 84.34627 
L 43.422051 84.276159 
L 43.998425 84.202798 
L 44.574799 84.126042 
L 45.151174 84.045738 
L 45.727548 83.961727 
L 46.303922 83.873844 
L 46.880296 83.781917 
L 47.456671 83.685766 
L 48.033045 83.585204 
L 48.609419 83.480039 
L 49.185793 83.370067 
L 49.762168 83.255079 
L 50.338542 83.134857 
L 50.914916 83.009174 
L 51.49129 82.877796 
L 52.067664 82.740478 
L 52.644039 82.596967 
L 53.220413 82.446999 
L 53.796787 82.290304 
L 54.373161 82.126599 
L 54.949536 81.955592 
L 55.52591 81.776982 
L 56.102284 81.590455 
L 56.678658 81.39569 
L 57.255033 81.192353 
L 57.831407 80.9801 
L 58.407781 80.758577 
L 58.984155 80.527419 
L 59.560529 80.28625 
L 60.136904 80.034683 
L 60.713278 79.772322 
L 61.289652 79.498759 
L 61.866026 79.213576 
L 62.442401 78.916345 
L 63.018775 78.60663 
L 63.595149 78.283982 
L 64.171523 77.947946 
L 64.747898 77.598058 
L 65.324272 77.233846 
L 65.900646 76.85483 
L 66.47702 76.460525 
L 67.053395 76.050439 
L 67.629769 75.624076 
L 68.206143 75.180938 
L 68.782517 74.720521 
L 69.358891 74.242324 
L 69.935266 73.745844 
L 70.51164 73.23058 
L 71.088014 72.696035 
L 71.664388 72.141718 
L 72.240763 71.567145 
L 72.817137 70.971841 
L 73.393511 70.355342 
L 73.969885 69.717199 
L 74.54626 69.056979 
L 75.122634 68.374269 
L 75.699008 67.668675 
L 76.275382 66.93983 
L 76.851757 66.187393 
L 77.428131 65.411054 
L 78.004505 64.610536 
L 78.580879 63.785597 
L 79.157253 62.936037 
L 79.733628 62.061697 
L 80.310002 61.162464 
L 80.886376 60.238275 
L 81.46275 59.289118 
L 82.039125 58.315035 
L 82.615499 57.316127 
L 83.191873 56.292554 
L 83.768247 55.244539 
L 84.344622 54.172372 
L 84.920996 53.076406 
L 85.49737 51.957066 
L 86.073744 50.814845 
L 86.650118 49.650308 
L 87.226493 48.464089 
L 87.802867 47.256897 
L 88.379241 46.02951 
L 88.955615 44.782779 
L 89.53199 43.517621 
L 90.108364 42.235023 
L 90.684738 40.936038 
L 91.261112 39.621781 
L 91.837487 38.293427 
L 92.413861 36.952207 
L 92.990235 35.599405 
L 93.566609 34.23635 
L 94.142984 32.864417 
L 94.719358 31.485015 
L 95.295732 30.099587 
L 95.872106 28.7096 
L 96.44848 27.316543 
L 97.024855 25.921915 
L 97.601229 24.527224 
L 98.177603 23.133978 
L 98.753977 21.743678 
L 99.330352 20.357812 
" clip-path="url(#pd89ed706f0)" style="fill: none; stroke: #f08080; stroke-opacity: 0.5; stroke-width: 1.5; stroke-linecap: square"/>
   </g>
   <g id="line2d_27">
    <path d="M 42.269302 84.541488 
L 42.845677 84.480387 
L 43.422051 84.416439 
L 43.998425 84.349514 
L 44.574799 84.279476 
L 45.151174 84.206185 
L 45.727548 84.129492 
L 46.303922 84.049246 
L 46.880296 83.965285 
L 47.456671 83.877443 
L 48.033045 83.785547 
L 48.609419 83.689415 
L 49.185793 83.58886 
L 49.762168 83.483685 
L 50.338542 83.373686 
L 50.914916 83.258651 
L 51.49129 83.138359 
L 52.067664 83.012581 
L 52.644039 82.881079 
L 53.220413 82.743604 
L 53.796787 82.599899 
L 54.373161 82.449698 
L 54.949536 82.292723 
L 55.52591 82.128688 
L 56.102284 81.957294 
L 56.678658 81.778234 
L 57.255033 81.591188 
L 57.831407 81.395826 
L 58.407781 81.191807 
L 58.984155 80.978779 
L 59.560529 80.756375 
L 60.136904 80.524222 
L 60.713278 80.281932 
L 61.289652 80.029104 
L 61.866026 79.76533 
L 62.442401 79.490185 
L 63.018775 79.203237 
L 63.595149 78.904039 
L 64.171523 78.592135 
L 64.747898 78.267058 
L 65.324272 77.92833 
L 65.900646 77.575462 
L 66.47702 77.207955 
L 67.053395 76.825304 
L 67.629769 76.426992 
L 68.206143 76.012494 
L 68.782517 75.581282 
L 69.358891 75.132817 
L 69.935266 74.666559 
L 70.51164 74.181962 
L 71.088014 73.678479 
L 71.664388 73.155559 
L 72.240763 72.612654 
L 72.817137 72.049219 
L 73.393511 71.464711 
L 73.969885 70.858593 
L 74.54626 70.230337 
L 75.122634 69.579426 
L 75.699008 68.905353 
L 76.275382 68.207629 
L 76.851757 67.485783 
L 77.428131 66.739362 
L 78.004505 65.967941 
L 78.580879 65.171117 
L 79.157253 64.348521 
L 79.733628 63.499814 
L 80.310002 62.624697 
L 80.886376 61.722908 
L 81.46275 60.794229 
L 82.039125 59.838489 
L 82.615499 58.855567 
L 83.191873 57.845396 
L 83.768247 56.807965 
L 84.344622 55.743323 
L 84.920996 54.651583 
L 85.49737 53.532923 
L 86.073744 52.38759 
L 86.650118 51.215901 
L 87.226493 50.018246 
L 87.802867 48.795093 
L 88.379241 47.546982 
L 88.955615 46.274533 
L 89.53199 44.978443 
L 90.108364 43.659489 
L 90.684738 42.318523 
L 91.261112 40.956476 
L 91.837487 39.574356 
L 92.413861 38.173241 
L 92.990235 36.754284 
L 93.566609 35.318705 
L 94.142984 33.86779 
L 94.719358 32.402885 
L 95.295732 30.925394 
L 95.872106 29.436771 
L 96.44848 27.938518 
L 97.024855 26.432176 
L 97.601229 24.919321 
L 98.177603 23.401557 
L 98.753977 21.880508 
L 99.330352 20.357812 
" clip-path="url(#pd89ed706f0)" style="fill: none; stroke: #b22222; stroke-opacity: 0.5; stroke-width: 1.5; stroke-linecap: square"/>
   </g>
   <g id="line2d_28">
    <path d="M 42.269302 80.679319 
L 42.845677 80.451498 
L 43.422051 80.214437 
L 43.998425 79.967831 
L 44.574799 79.711377 
L 45.151174 79.444767 
L 45.727548 79.167691 
L 46.303922 78.879838 
L 46.880296 78.580898 
L 47.456671 78.270559 
L 48.033045 77.948512 
L 48.609419 77.61445 
L 49.185793 77.268069 
L 49.762168 76.909073 
L 50.338542 76.537167 
L 50.914916 76.152069 
L 51.49129 75.753501 
L 52.067664 75.341199 
L 52.644039 74.914911 
L 53.220413 74.474396 
L 53.796787 74.019431 
L 54.373161 73.549811 
L 54.949536 73.065348 
L 55.52591 72.565876 
L 56.102284 72.051252 
L 56.678658 71.52136 
L 57.255033 70.976107 
L 57.831407 70.415433 
L 58.407781 69.839304 
L 58.984155 69.247724 
L 59.560529 68.640727 
L 60.136904 68.018385 
L 60.713278 67.380808 
L 61.289652 66.728144 
L 61.866026 66.060582 
L 62.442401 65.378353 
L 63.018775 64.681731 
L 63.595149 63.971033 
L 64.171523 63.246618 
L 64.747898 62.508893 
L 65.324272 61.758308 
L 65.900646 60.995354 
L 66.47702 60.220571 
L 67.053395 59.434537 
L 67.629769 58.637874 
L 68.206143 57.831245 
L 68.782517 57.015348 
L 69.358891 56.190921 
L 69.935266 55.358735 
L 70.51164 54.519591 
L 71.088014 53.674322 
L 71.664388 52.823782 
L 72.240763 51.968851 
L 72.817137 51.110426 
L 73.393511 50.24942 
L 73.969885 49.386754 
L 74.54626 48.52336 
L 75.122634 47.660172 
L 75.699008 46.798121 
L 76.275382 45.938136 
L 76.851757 45.081135 
L 77.428131 44.228025 
L 78.004505 43.379695 
L 78.580879 42.537014 
L 79.157253 41.700828 
L 79.733628 40.871955 
L 80.310002 40.051185 
L 80.886376 39.239273 
L 81.46275 38.43694 
L 82.039125 37.64487 
L 82.615499 36.863707 
L 83.191873 36.094055 
L 83.768247 35.336474 
L 84.344622 34.591483 
L 84.920996 33.859556 
L 85.49737 33.141123 
L 86.073744 32.43657 
L 86.650118 31.746238 
L 87.226493 31.070425 
L 87.802867 30.409386 
L 88.379241 29.763332 
L 88.955615 29.132436 
L 89.53199 28.516828 
L 90.108364 27.9166 
L 90.684738 27.331809 
L 91.261112 26.762476 
L 91.837487 26.208585 
L 92.413861 25.670094 
L 92.990235 25.146926 
L 93.566609 24.638978 
L 94.142984 24.146122 
L 94.719358 23.668205 
L 95.295732 23.205051 
L 95.872106 22.756464 
L 96.44848 22.322231 
L 97.024855 21.90212 
L 97.601229 21.495887 
L 98.177603 21.103273 
L 98.753977 20.724008 
L 99.330352 20.357812 
" clip-path="url(#pd89ed706f0)" style="fill: none; stroke: #ff0000; stroke-opacity: 0.5; stroke-width: 1.5; stroke-linecap: square"/>
   </g>
   <g id="LineCollection_1">
    <path d="M 90.741808 85.838127 
L 90.741808 20.357812 
" clip-path="url(#pd89ed706f0)" style="fill: none; stroke: #000000; stroke-width: 1.5"/>
   </g>
   <g id="LineCollection_2">
    <path d="M 43.450257 85.838127 
L 43.450257 20.357812 
" clip-path="url(#pd89ed706f0)" style="fill: none; stroke: #808080; stroke-width: 1.5"/>
   </g>
   <g id="LineCollection_3">
    <path d="M 48.77103 85.838127 
L 48.77103 20.357812 
" clip-path="url(#pd89ed706f0)" style="fill: none; stroke: #d3d3d3; stroke-width: 1.5"/>
   </g>
   <g id="patch_3">
    <path d="M 39.41625 85.838127 
L 39.41625 20.357812 
" style="fill: none; stroke: #000000; stroke-width: 0.8; stroke-linejoin: miter; stroke-linecap: square"/>
   </g>
   <g id="patch_4">
    <path d="M 102.183404 85.838127 
L 102.183404 20.357812 
" style="fill: none; stroke: #000000; stroke-width: 0.8; stroke-linejoin: miter; stroke-linecap: square"/>
   </g>
   <g id="patch_5">
    <path d="M 39.41625 85.838127 
L 102.183404 85.838127 
" style="fill: none; stroke: #000000; stroke-width: 0.8; stroke-linejoin: miter; stroke-linecap: square"/>
   </g>
   <g id="patch_6">
    <path d="M 39.41625 20.357812 
L 102.183404 20.357812 
" style="fill: none; stroke: #000000; stroke-width: 0.8; stroke-linejoin: miter; stroke-linecap: square"/>
   </g>
   <g id="text_9">
    <!-- Positive Predictive Value -->
    <g transform="translate(16.143577 14.357812) scale(0.1 -0.1)">
     <defs>
      <path id="ArialMT-6f" d="M 213 1659 
Q 213 2581 725 3025 
Q 1153 3394 1769 3394 
Q 2453 3394 2887 2945 
Q 3322 2497 3322 1706 
Q 3322 1066 3130 698 
Q 2938 331 2570 128 
Q 2203 -75 1769 -75 
Q 1072 -75 642 372 
Q 213 819 213 1659 
z
M 791 1659 
Q 791 1022 1069 705 
Q 1347 388 1769 388 
Q 2188 388 2466 706 
Q 2744 1025 2744 1678 
Q 2744 2294 2464 2611 
Q 2184 2928 1769 2928 
Q 1347 2928 1069 2612 
Q 791 2297 791 1659 
z
" transform="scale(0.015625)"/>
      <path id="ArialMT-73" d="M 197 991 
L 753 1078 
Q 800 744 1014 566 
Q 1228 388 1613 388 
Q 2000 388 2187 545 
Q 2375 703 2375 916 
Q 2375 1106 2209 1216 
Q 2094 1291 1634 1406 
Q 1016 1563 777 1677 
Q 538 1791 414 1992 
Q 291 2194 291 2438 
Q 291 2659 392 2848 
Q 494 3038 669 3163 
Q 800 3259 1026 3326 
Q 1253 3394 1513 3394 
Q 1903 3394 2198 3281 
Q 2494 3169 2634 2976 
Q 2775 2784 2828 2463 
L 2278 2388 
Q 2241 2644 2061 2787 
Q 1881 2931 1553 2931 
Q 1166 2931 1000 2803 
Q 834 2675 834 2503 
Q 834 2394 903 2306 
Q 972 2216 1119 2156 
Q 1203 2125 1616 2013 
Q 2213 1853 2448 1751 
Q 2684 1650 2818 1456 
Q 2953 1263 2953 975 
Q 2953 694 2789 445 
Q 2625 197 2315 61 
Q 2006 -75 1616 -75 
Q 969 -75 630 194 
Q 291 463 197 991 
z
" transform="scale(0.015625)"/>
      <path id="ArialMT-69" d="M 425 3934 
L 425 4581 
L 988 4581 
L 988 3934 
L 425 3934 
z
M 425 0 
L 425 3319 
L 988 3319 
L 988 0 
L 425 0 
z
" transform="scale(0.015625)"/>
      <path id="ArialMT-74" d="M 1650 503 
L 1731 6 
Q 1494 -44 1306 -44 
Q 1000 -44 831 53 
Q 663 150 594 308 
Q 525 466 525 972 
L 525 2881 
L 113 2881 
L 113 3319 
L 525 3319 
L 525 4141 
L 1084 4478 
L 1084 3319 
L 1650 3319 
L 1650 2881 
L 1084 2881 
L 1084 941 
Q 1084 700 1114 631 
Q 1144 563 1211 522 
Q 1278 481 1403 481 
Q 1497 481 1650 503 
z
" transform="scale(0.015625)"/>
      <path id="ArialMT-76" d="M 1344 0 
L 81 3319 
L 675 3319 
L 1388 1331 
Q 1503 1009 1600 663 
Q 1675 925 1809 1294 
L 2547 3319 
L 3125 3319 
L 1869 0 
L 1344 0 
z
" transform="scale(0.015625)"/>
      <path id="ArialMT-65" d="M 2694 1069 
L 3275 997 
Q 3138 488 2766 206 
Q 2394 -75 1816 -75 
Q 1088 -75 661 373 
Q 234 822 234 1631 
Q 234 2469 665 2931 
Q 1097 3394 1784 3394 
Q 2450 3394 2872 2941 
Q 3294 2488 3294 1666 
Q 3294 1616 3291 1516 
L 816 1516 
Q 847 969 1125 678 
Q 1403 388 1819 388 
Q 2128 388 2347 550 
Q 2566 713 2694 1069 
z
M 847 1978 
L 2700 1978 
Q 2663 2397 2488 2606 
Q 2219 2931 1791 2931 
Q 1403 2931 1139 2672 
Q 875 2413 847 1978 
z
" transform="scale(0.015625)"/>
      <path id="ArialMT-20" transform="scale(0.015625)"/>
      <path id="ArialMT-72" d="M 416 0 
L 416 3319 
L 922 3319 
L 922 2816 
Q 1116 3169 1280 3281 
Q 1444 3394 1641 3394 
Q 1925 3394 2219 3213 
L 2025 2691 
Q 1819 2813 1613 2813 
Q 1428 2813 1281 2702 
Q 1134 2591 1072 2394 
Q 978 2094 978 1738 
L 978 0 
L 416 0 
z
" transform="scale(0.015625)"/>
      <path id="ArialMT-64" d="M 2575 0 
L 2575 419 
Q 2259 -75 1647 -75 
Q 1250 -75 917 144 
Q 584 363 401 755 
Q 219 1147 219 1656 
Q 219 2153 384 2558 
Q 550 2963 881 3178 
Q 1213 3394 1622 3394 
Q 1922 3394 2156 3267 
Q 2391 3141 2538 2938 
L 2538 4581 
L 3097 4581 
L 3097 0 
L 2575 0 
z
M 797 1656 
Q 797 1019 1065 703 
Q 1334 388 1700 388 
Q 2069 388 2326 689 
Q 2584 991 2584 1609 
Q 2584 2291 2321 2609 
Q 2059 2928 1675 2928 
Q 1300 2928 1048 2622 
Q 797 2316 797 1656 
z
" transform="scale(0.015625)"/>
      <path id="ArialMT-63" d="M 2588 1216 
L 3141 1144 
Q 3050 572 2676 248 
Q 2303 -75 1759 -75 
Q 1078 -75 664 370 
Q 250 816 250 1647 
Q 250 2184 428 2587 
Q 606 2991 970 3192 
Q 1334 3394 1763 3394 
Q 2303 3394 2647 3120 
Q 2991 2847 3088 2344 
L 2541 2259 
Q 2463 2594 2264 2762 
Q 2066 2931 1784 2931 
Q 1359 2931 1093 2626 
Q 828 2322 828 1663 
Q 828 994 1084 691 
Q 1341 388 1753 388 
Q 2084 388 2306 591 
Q 2528 794 2588 1216 
z
" transform="scale(0.015625)"/>
      <path id="ArialMT-61" d="M 2588 409 
Q 2275 144 1986 34 
Q 1697 -75 1366 -75 
Q 819 -75 525 192 
Q 231 459 231 875 
Q 231 1119 342 1320 
Q 453 1522 633 1644 
Q 813 1766 1038 1828 
Q 1203 1872 1538 1913 
Q 2219 1994 2541 2106 
Q 2544 2222 2544 2253 
Q 2544 2597 2384 2738 
Q 2169 2928 1744 2928 
Q 1347 2928 1158 2789 
Q 969 2650 878 2297 
L 328 2372 
Q 403 2725 575 2942 
Q 747 3159 1072 3276 
Q 1397 3394 1825 3394 
Q 2250 3394 2515 3294 
Q 2781 3194 2906 3042 
Q 3031 2891 3081 2659 
Q 3109 2516 3109 2141 
L 3109 1391 
Q 3109 606 3145 398 
Q 3181 191 3288 0 
L 2700 0 
Q 2613 175 2588 409 
z
M 2541 1666 
Q 2234 1541 1622 1453 
Q 1275 1403 1131 1340 
Q 988 1278 909 1158 
Q 831 1038 831 891 
Q 831 666 1001 516 
Q 1172 366 1500 366 
Q 1825 366 2078 508 
Q 2331 650 2450 897 
Q 2541 1088 2541 1459 
L 2541 1666 
z
" transform="scale(0.015625)"/>
      <path id="ArialMT-6c" d="M 409 0 
L 409 4581 
L 972 4581 
L 972 0 
L 409 0 
z
" transform="scale(0.015625)"/>
      <path id="ArialMT-75" d="M 2597 0 
L 2597 488 
Q 2209 -75 1544 -75 
Q 1250 -75 995 37 
Q 741 150 617 320 
Q 494 491 444 738 
Q 409 903 409 1263 
L 409 3319 
L 972 3319 
L 972 1478 
Q 972 1038 1006 884 
Q 1059 663 1231 536 
Q 1403 409 1656 409 
Q 1909 409 2131 539 
Q 2353 669 2445 892 
Q 2538 1116 2538 1541 
L 2538 3319 
L 3100 3319 
L 3100 0 
L 2597 0 
z
" transform="scale(0.015625)"/>
     </defs>
     <use xlink:href="#ArialMT-50"/>
     <use xlink:href="#ArialMT-6f" x="66.699219"/>
     <use xlink:href="#ArialMT-73" x="122.314453"/>
     <use xlink:href="#ArialMT-69" x="172.314453"/>
     <use xlink:href="#ArialMT-74" x="194.53125"/>
     <use xlink:href="#ArialMT-69" x="222.314453"/>
     <use xlink:href="#ArialMT-76" x="244.53125"/>
     <use xlink:href="#ArialMT-65" x="294.53125"/>
     <use xlink:href="#ArialMT-20" x="350.146484"/>
     <use xlink:href="#ArialMT-50" x="377.929688"/>
     <use xlink:href="#ArialMT-72" x="444.628906"/>
     <use xlink:href="#ArialMT-65" x="477.929688"/>
     <use xlink:href="#ArialMT-64" x="533.544922"/>
     <use xlink:href="#ArialMT-69" x="589.160156"/>
     <use xlink:href="#ArialMT-63" x="611.376953"/>
     <use xlink:href="#ArialMT-74" x="661.376953"/>
     <use xlink:href="#ArialMT-69" x="689.160156"/>
     <use xlink:href="#ArialMT-76" x="711.376953"/>
     <use xlink:href="#ArialMT-65" x="761.376953"/>
     <use xlink:href="#ArialMT-20" x="816.992188"/>
     <use xlink:href="#ArialMT-56" x="844.775391"/>
     <use xlink:href="#ArialMT-61" x="904.099609"/>
     <use xlink:href="#ArialMT-6c" x="959.714844"/>
     <use xlink:href="#ArialMT-75" x="981.931641"/>
     <use xlink:href="#ArialMT-65" x="1037.546875"/>
    </g>
   </g>
  </g>
  <g id="axes_2">
   <g id="patch_7">
    <path d="M 240.271143 85.838127 
L 303.038297 85.838127 
L 303.038297 20.357812 
L 240.271143 20.357812 
L 240.271143 85.838127 
z
" style="fill: none"/>
   </g>
   <g id="matplotlib.axis_3">
    <g id="xtick_22">
     <g id="line2d_29">
      <g>
       <use xlink:href="#m3980118b55" x="243.124196" y="85.838127" style="stroke: #000000; stroke-width: 0.8"/>
      </g>
     </g>
     <g id="text_10">
      <!-- 1% -->
      <g transform="translate(240.024866 104.656921) rotate(-40) scale(0.08 -0.08)">
       <use xlink:href="#ArialMT-31"/>
       <use xlink:href="#ArialMT-25" x="55.615234"/>
      </g>
     </g>
    </g>
    <g id="xtick_23">
     <g id="line2d_30">
      <g>
       <use xlink:href="#m3980118b55" x="271.65472" y="85.838127" style="stroke: #000000; stroke-width: 0.8"/>
      </g>
     </g>
     <g id="text_11">
      <!-- 10% -->
      <g transform="translate(266.851421 107.516523) rotate(-40) scale(0.08 -0.08)">
       <use xlink:href="#ArialMT-31"/>
       <use xlink:href="#ArialMT-30" x="55.615234"/>
       <use xlink:href="#ArialMT-25" x="111.230469"/>
      </g>
     </g>
    </g>
    <g id="xtick_24">
     <g id="line2d_31">
      <g>
       <use xlink:href="#m3980118b55" x="291.596701" y="85.838127" style="stroke: #000000; stroke-width: 0.8"/>
      </g>
     </g>
     <g id="text_12">
      <!-- 50% -->
      <g transform="translate(286.793402 107.516523) rotate(-40) scale(0.08 -0.08)">
       <use xlink:href="#ArialMT-35"/>
       <use xlink:href="#ArialMT-30" x="55.615234"/>
       <use xlink:href="#ArialMT-25" x="111.230469"/>
      </g>
     </g>
    </g>
    <g id="xtick_25">
     <g id="line2d_32">
      <g>
       <use xlink:href="#m3980118b55" x="300.185245" y="85.838127" style="stroke: #000000; stroke-width: 0.8"/>
      </g>
     </g>
     <g id="text_13">
      <!-- 100% -->
      <g transform="translate(293.677975 110.376124) rotate(-40) scale(0.08 -0.08)">
       <use xlink:href="#ArialMT-31"/>
       <use xlink:href="#ArialMT-30" x="55.615234"/>
       <use xlink:href="#ArialMT-30" x="111.230469"/>
       <use xlink:href="#ArialMT-25" x="166.845703"/>
      </g>
     </g>
    </g>
    <g id="xtick_26">
     <g id="line2d_33">
      <g>
       <use xlink:href="#m5e0ce3d0eb" x="240.359302" y="85.838127" style="stroke: #000000; stroke-width: 0.6"/>
      </g>
     </g>
    </g>
    <g id="xtick_27">
     <g id="line2d_34">
      <g>
       <use xlink:href="#m5e0ce3d0eb" x="241.81871" y="85.838127" style="stroke: #000000; stroke-width: 0.6"/>
      </g>
     </g>
    </g>
    <g id="xtick_28">
     <g id="line2d_35">
      <g>
       <use xlink:href="#m5e0ce3d0eb" x="251.712739" y="85.838127" style="stroke: #000000; stroke-width: 0.6"/>
      </g>
     </g>
    </g>
    <g id="xtick_29">
     <g id="line2d_36">
      <g>
       <use xlink:href="#m5e0ce3d0eb" x="256.736715" y="85.838127" style="stroke: #000000; stroke-width: 0.6"/>
      </g>
     </g>
    </g>
    <g id="xtick_30">
     <g id="line2d_37">
      <g>
       <use xlink:href="#m5e0ce3d0eb" x="260.301283" y="85.838127" style="stroke: #000000; stroke-width: 0.6"/>
      </g>
     </g>
    </g>
    <g id="xtick_31">
     <g id="line2d_38">
      <g>
       <use xlink:href="#m5e0ce3d0eb" x="263.066176" y="85.838127" style="stroke: #000000; stroke-width: 0.6"/>
      </g>
     </g>
    </g>
    <g id="xtick_32">
     <g id="line2d_39">
      <g>
       <use xlink:href="#m5e0ce3d0eb" x="265.325259" y="85.838127" style="stroke: #000000; stroke-width: 0.6"/>
      </g>
     </g>
    </g>
    <g id="xtick_33">
     <g id="line2d_40">
      <g>
       <use xlink:href="#m5e0ce3d0eb" x="267.235286" y="85.838127" style="stroke: #000000; stroke-width: 0.6"/>
      </g>
     </g>
    </g>
    <g id="xtick_34">
     <g id="line2d_41">
      <g>
       <use xlink:href="#m5e0ce3d0eb" x="268.889827" y="85.838127" style="stroke: #000000; stroke-width: 0.6"/>
      </g>
     </g>
    </g>
    <g id="xtick_35">
     <g id="line2d_42">
      <g>
       <use xlink:href="#m5e0ce3d0eb" x="270.349235" y="85.838127" style="stroke: #000000; stroke-width: 0.6"/>
      </g>
     </g>
    </g>
    <g id="xtick_36">
     <g id="line2d_43">
      <g>
       <use xlink:href="#m5e0ce3d0eb" x="280.243264" y="85.838127" style="stroke: #000000; stroke-width: 0.6"/>
      </g>
     </g>
    </g>
    <g id="xtick_37">
     <g id="line2d_44">
      <g>
       <use xlink:href="#m5e0ce3d0eb" x="285.26724" y="85.838127" style="stroke: #000000; stroke-width: 0.6"/>
      </g>
     </g>
    </g>
    <g id="xtick_38">
     <g id="line2d_45">
      <g>
       <use xlink:href="#m5e0ce3d0eb" x="288.831808" y="85.838127" style="stroke: #000000; stroke-width: 0.6"/>
      </g>
     </g>
    </g>
    <g id="xtick_39">
     <g id="line2d_46">
      <g>
       <use xlink:href="#m5e0ce3d0eb" x="293.855784" y="85.838127" style="stroke: #000000; stroke-width: 0.6"/>
      </g>
     </g>
    </g>
    <g id="xtick_40">
     <g id="line2d_47">
      <g>
       <use xlink:href="#m5e0ce3d0eb" x="295.765811" y="85.838127" style="stroke: #000000; stroke-width: 0.6"/>
      </g>
     </g>
    </g>
    <g id="xtick_41">
     <g id="line2d_48">
      <g>
       <use xlink:href="#m5e0ce3d0eb" x="297.420351" y="85.838127" style="stroke: #000000; stroke-width: 0.6"/>
      </g>
     </g>
    </g>
    <g id="xtick_42">
     <g id="line2d_49">
      <g>
       <use xlink:href="#m5e0ce3d0eb" x="298.87976" y="85.838127" style="stroke: #000000; stroke-width: 0.6"/>
      </g>
     </g>
    </g>
   </g>
   <g id="matplotlib.axis_4">
    <g id="ytick_4">
     <g id="line2d_50">
      <g>
       <use xlink:href="#m16c04dd7ef" x="240.271143" y="85.838127" style="stroke: #000000; stroke-width: 0.8"/>
      </g>
     </g>
     <g id="text_14">
      <!-- 0.0 -->
      <g transform="translate(219.371143 89.417034) scale(0.1 -0.1)">
       <use xlink:href="#ArialMT-30"/>
       <use xlink:href="#ArialMT-2e" x="55.615234"/>
       <use xlink:href="#ArialMT-30" x="83.398438"/>
      </g>
     </g>
    </g>
    <g id="ytick_5">
     <g id="line2d_51">
      <g>
       <use xlink:href="#m16c04dd7ef" x="240.271143" y="53.09797" style="stroke: #000000; stroke-width: 0.8"/>
      </g>
     </g>
     <g id="text_15">
      <!-- 0.5 -->
      <g transform="translate(219.371143 56.676876) scale(0.1 -0.1)">
       <use xlink:href="#ArialMT-30"/>
       <use xlink:href="#ArialMT-2e" x="55.615234"/>
       <use xlink:href="#ArialMT-35" x="83.398438"/>
      </g>
     </g>
    </g>
    <g id="ytick_6">
     <g id="line2d_52">
      <g>
       <use xlink:href="#m16c04dd7ef" x="240.271143" y="20.357812" style="stroke: #000000; stroke-width: 0.8"/>
      </g>
     </g>
     <g id="text_16">
      <!-- 1.0 -->
      <g transform="translate(219.371143 23.936719) scale(0.1 -0.1)">
       <use xlink:href="#ArialMT-31"/>
       <use xlink:href="#ArialMT-2e" x="55.615234"/>
       <use xlink:href="#ArialMT-30" x="83.398438"/>
      </g>
     </g>
    </g>
    <g id="text_17">
     <!-- Accuracy -->
     <g transform="translate(213.687393 69.54672) rotate(-90) scale(0.08 -0.08)">
      <defs>
       <path id="ArialMT-41" d="M -9 0 
L 1750 4581 
L 2403 4581 
L 4278 0 
L 3588 0 
L 3053 1388 
L 1138 1388 
L 634 0 
L -9 0 
z
M 1313 1881 
L 2866 1881 
L 2388 3150 
Q 2169 3728 2063 4100 
Q 1975 3659 1816 3225 
L 1313 1881 
z
" transform="scale(0.015625)"/>
       <path id="ArialMT-79" d="M 397 -1278 
L 334 -750 
Q 519 -800 656 -800 
Q 844 -800 956 -737 
Q 1069 -675 1141 -563 
Q 1194 -478 1313 -144 
Q 1328 -97 1363 -6 
L 103 3319 
L 709 3319 
L 1400 1397 
Q 1534 1031 1641 628 
Q 1738 1016 1872 1384 
L 2581 3319 
L 3144 3319 
L 1881 -56 
Q 1678 -603 1566 -809 
Q 1416 -1088 1222 -1217 
Q 1028 -1347 759 -1347 
Q 597 -1347 397 -1278 
z
" transform="scale(0.015625)"/>
      </defs>
      <use xlink:href="#ArialMT-41"/>
      <use xlink:href="#ArialMT-63" x="66.699219"/>
      <use xlink:href="#ArialMT-63" x="116.699219"/>
      <use xlink:href="#ArialMT-75" x="166.699219"/>
      <use xlink:href="#ArialMT-72" x="222.314453"/>
      <use xlink:href="#ArialMT-61" x="255.615234"/>
      <use xlink:href="#ArialMT-63" x="311.230469"/>
      <use xlink:href="#ArialMT-79" x="361.230469"/>
     </g>
    </g>
   </g>
   <g id="line2d_53">
    <path d="M 243.124196 21.309241 
L 243.70057 21.338955 
L 244.276944 21.370083 
L 244.853318 21.402694 
L 245.429693 21.436857 
L 246.006067 21.472647 
L 246.582441 21.510142 
L 247.158815 21.549421 
L 247.735189 21.590571 
L 248.311564 21.63368 
L 248.887938 21.678842 
L 249.464312 21.726155 
L 250.040686 21.77572 
L 250.617061 21.827645 
L 251.193435 21.882043 
L 251.769809 21.939031 
L 252.346183 21.998732 
L 252.922558 22.061276 
L 253.498932 22.126798 
L 254.075306 22.19544 
L 254.65168 22.267351 
L 255.228055 22.342686 
L 255.804429 22.421607 
L 256.380803 22.504287 
L 256.957177 22.590904 
L 257.533551 22.681644 
L 258.109926 22.776706 
L 258.6863 22.876294 
L 259.262674 22.980624 
L 259.839048 23.089922 
L 260.415423 23.204423 
L 260.991797 23.324378 
L 261.568171 23.450043 
L 262.144545 23.581693 
L 262.72092 23.719611 
L 263.297294 23.864096 
L 263.873668 24.015461 
L 264.450042 24.174033 
L 265.026416 24.340156 
L 265.602791 24.514188 
L 266.179165 24.696508 
L 266.755539 24.887509 
L 267.331913 25.087604 
L 267.908288 25.297227 
L 268.484662 25.516832 
L 269.061036 25.746893 
L 269.63741 25.987908 
L 270.213785 26.2404 
L 270.790159 26.504915 
L 271.366533 26.782024 
L 271.942907 27.072328 
L 272.519282 27.376455 
L 273.095656 27.695064 
L 273.67203 28.028843 
L 274.248404 28.378516 
L 274.824778 28.744838 
L 275.401153 29.128603 
L 275.977527 29.530641 
L 276.553901 29.951823 
L 277.130275 30.393059 
L 277.70665 30.855306 
L 278.283024 31.339562 
L 278.859398 31.846877 
L 279.435772 32.378348 
L 280.012147 32.935126 
L 280.588521 33.518414 
L 281.164895 34.129477 
L 281.741269 34.769636 
L 282.317644 35.440276 
L 282.894018 36.142849 
L 283.470392 36.878876 
L 284.046766 37.64995 
L 284.62314 38.457738 
L 285.199515 39.30399 
L 285.775889 40.190537 
L 286.352263 41.119298 
L 286.928637 42.092282 
L 287.505012 43.111596 
L 288.081386 44.179445 
L 288.65776 45.298141 
L 289.234134 46.470104 
L 289.810509 47.697871 
L 290.386883 48.984099 
L 290.963257 50.331571 
L 291.539631 51.743205 
L 292.116006 53.222055 
L 292.69238 54.771321 
L 293.268754 56.394356 
L 293.845128 58.094674 
L 294.421502 59.875954 
L 294.997877 61.74205 
L 295.574251 63.697002 
L 296.150625 65.745041 
L 296.726999 67.890599 
L 297.303374 70.138318 
L 297.879748 72.493065 
L 298.456122 74.959935 
L 299.032496 77.544267 
L 299.608871 80.251653 
L 300.185245 83.087954 
" clip-path="url(#p7f21580c72)" style="fill: none; stroke: #fe9d08; stroke-opacity: 0.5; stroke-width: 1.5; stroke-linecap: square"/>
   </g>
   <g id="line2d_54">
    <path d="M 243.124196 38.569852 
L 243.70057 38.573376 
L 244.276944 38.577067 
L 244.853318 38.580933 
L 245.429693 38.584984 
L 246.006067 38.589228 
L 246.582441 38.593674 
L 247.158815 38.598331 
L 247.735189 38.603211 
L 248.311564 38.608322 
L 248.887938 38.613677 
L 249.464312 38.619287 
L 250.040686 38.625164 
L 250.617061 38.631321 
L 251.193435 38.637771 
L 251.769809 38.644528 
L 252.346183 38.651607 
L 252.922558 38.659023 
L 253.498932 38.666793 
L 254.075306 38.674932 
L 254.65168 38.683458 
L 255.228055 38.692391 
L 255.804429 38.701749 
L 256.380803 38.711553 
L 256.957177 38.721823 
L 257.533551 38.732582 
L 258.109926 38.743854 
L 258.6863 38.755662 
L 259.262674 38.768033 
L 259.839048 38.780993 
L 260.415423 38.79457 
L 260.991797 38.808793 
L 261.568171 38.823694 
L 262.144545 38.839304 
L 262.72092 38.855657 
L 263.297294 38.872789 
L 263.873668 38.890737 
L 264.450042 38.909539 
L 265.026416 38.929237 
L 265.602791 38.949872 
L 266.179165 38.971491 
L 266.755539 38.994138 
L 267.331913 39.017864 
L 267.908288 39.04272 
L 268.484662 39.068759 
L 269.061036 39.096038 
L 269.63741 39.124616 
L 270.213785 39.154554 
L 270.790159 39.185919 
L 271.366533 39.218776 
L 271.942907 39.253199 
L 272.519282 39.28926 
L 273.095656 39.327038 
L 273.67203 39.366615 
L 274.248404 39.408077 
L 274.824778 39.451513 
L 275.401153 39.497017 
L 275.977527 39.544688 
L 276.553901 39.594629 
L 277.130275 39.646947 
L 277.70665 39.701757 
L 278.283024 39.759177 
L 278.859398 39.819331 
L 279.435772 39.882349 
L 280.012147 39.948368 
L 280.588521 40.01753 
L 281.164895 40.089985 
L 281.741269 40.165891 
L 282.317644 40.245411 
L 282.894018 40.328717 
L 283.470392 40.41599 
L 284.046766 40.507418 
L 284.62314 40.6032 
L 285.199515 40.703543 
L 285.775889 40.808663 
L 286.352263 40.918789 
L 286.928637 41.034159 
L 287.505012 41.155022 
L 288.081386 41.28164 
L 288.65776 41.414287 
L 289.234134 41.55325 
L 289.810509 41.69883 
L 290.386883 41.851341 
L 290.963257 42.011115 
L 291.539631 42.178497 
L 292.116006 42.353848 
L 292.69238 42.537549 
L 293.268754 42.729997 
L 293.845128 42.931609 
L 294.421502 43.14282 
L 294.997877 43.364089 
L 295.574251 43.595893 
L 296.150625 43.838735 
L 296.726999 44.09314 
L 297.303374 44.359659 
L 297.879748 44.638868 
L 298.456122 44.931372 
L 299.032496 45.237804 
L 299.608871 45.558827 
L 300.185245 45.895135 
" clip-path="url(#p7f21580c72)" style="fill: none; stroke: #f08080; stroke-opacity: 0.5; stroke-width: 1.5; stroke-linecap: square"/>
   </g>
   <g id="line2d_55">
    <path d="M 243.124196 44.513501 
L 243.70057 44.510071 
L 244.276944 44.506478 
L 244.853318 44.502714 
L 245.429693 44.498771 
L 246.006067 44.49464 
L 246.582441 44.490312 
L 247.158815 44.485778 
L 247.735189 44.481028 
L 248.311564 44.476052 
L 248.887938 44.47084 
L 249.464312 44.465379 
L 250.040686 44.459657 
L 250.617061 44.453664 
L 251.193435 44.447385 
L 251.769809 44.440807 
L 252.346183 44.433916 
L 252.922558 44.426697 
L 253.498932 44.419134 
L 254.075306 44.411211 
L 254.65168 44.402911 
L 255.228055 44.394215 
L 255.804429 44.385106 
L 256.380803 44.375563 
L 256.957177 44.365565 
L 257.533551 44.355091 
L 258.109926 44.344119 
L 258.6863 44.332624 
L 259.262674 44.320581 
L 259.839048 44.307966 
L 260.415423 44.294749 
L 260.991797 44.280904 
L 261.568171 44.266399 
L 262.144545 44.251203 
L 262.72092 44.235284 
L 263.297294 44.218607 
L 263.873668 44.201135 
L 264.450042 44.182832 
L 265.026416 44.163658 
L 265.602791 44.14357 
L 266.179165 44.122526 
L 266.755539 44.100479 
L 267.331913 44.077383 
L 267.908288 44.053188 
L 268.484662 44.02784 
L 269.061036 44.001285 
L 269.63741 43.973466 
L 270.213785 43.944322 
L 270.790159 43.91379 
L 271.366533 43.881805 
L 271.942907 43.848297 
L 272.519282 43.813193 
L 273.095656 43.776417 
L 273.67203 43.737891 
L 274.248404 43.69753 
L 274.824778 43.655247 
L 275.401153 43.610951 
L 275.977527 43.564546 
L 276.553901 43.515931 
L 277.130275 43.465001 
L 277.70665 43.411646 
L 278.283024 43.355751 
L 278.859398 43.297194 
L 279.435772 43.235849 
L 280.012147 43.171583 
L 280.588521 43.104257 
L 281.164895 43.033725 
L 281.741269 42.959835 
L 282.317644 42.882426 
L 282.894018 42.801332 
L 283.470392 42.716376 
L 284.046766 42.627375 
L 284.62314 42.534136 
L 285.199515 42.436457 
L 285.775889 42.334128 
L 286.352263 42.226925 
L 286.928637 42.114619 
L 287.505012 41.996964 
L 288.081386 41.873708 
L 288.65776 41.744583 
L 289.234134 41.609309 
L 289.810509 41.467594 
L 290.386883 41.319131 
L 290.963257 41.163599 
L 291.539631 41.000661 
L 292.116006 40.829965 
L 292.69238 40.651141 
L 293.268754 40.463802 
L 293.845128 40.267543 
L 294.421502 40.061939 
L 294.997877 39.846545 
L 295.574251 39.620895 
L 296.150625 39.3845 
L 296.726999 39.136849 
L 297.303374 38.877406 
L 297.879748 38.605609 
L 298.456122 38.320871 
L 299.032496 38.022574 
L 299.608871 37.710074 
L 300.185245 37.382694 
" clip-path="url(#p7f21580c72)" style="fill: none; stroke: #b22222; stroke-opacity: 0.5; stroke-width: 1.5; stroke-linecap: square"/>
   </g>
   <g id="line2d_56">
    <path d="M 243.124196 22.791061 
L 243.70057 22.813385 
L 244.276944 22.836772 
L 244.853318 22.861273 
L 245.429693 22.88694 
L 246.006067 22.91383 
L 246.582441 22.942 
L 247.158815 22.971511 
L 247.735189 23.002427 
L 248.311564 23.034816 
L 248.887938 23.068746 
L 249.464312 23.104293 
L 250.040686 23.141532 
L 250.617061 23.180544 
L 251.193435 23.221413 
L 251.769809 23.264229 
L 252.346183 23.309083 
L 252.922558 23.356073 
L 253.498932 23.405301 
L 254.075306 23.456873 
L 254.65168 23.5109 
L 255.228055 23.5675 
L 255.804429 23.626794 
L 256.380803 23.688913 
L 256.957177 23.753989 
L 257.533551 23.822163 
L 258.109926 23.893584 
L 258.6863 23.968406 
L 259.262674 24.04679 
L 259.839048 24.128907 
L 260.415423 24.214933 
L 260.991797 24.305056 
L 261.568171 24.39947 
L 262.144545 24.49838 
L 262.72092 24.601999 
L 263.297294 24.710553 
L 263.873668 24.824275 
L 264.450042 24.943412 
L 265.026416 25.068222 
L 265.602791 25.198975 
L 266.179165 25.335954 
L 266.755539 25.479455 
L 267.331913 25.629789 
L 267.908288 25.787281 
L 268.484662 25.952272 
L 269.061036 26.12512 
L 269.63741 26.306198 
L 270.213785 26.495898 
L 270.790159 26.694631 
L 271.366533 26.902826 
L 271.942907 27.120935 
L 272.519282 27.349429 
L 273.095656 27.588804 
L 273.67203 27.839576 
L 274.248404 28.102289 
L 274.824778 28.377511 
L 275.401153 28.665838 
L 275.977527 28.967894 
L 276.553901 29.284333 
L 277.130275 29.615839 
L 277.70665 29.96313 
L 278.283024 30.326958 
L 278.859398 30.70811 
L 279.435772 31.10741 
L 280.012147 31.525723 
L 280.588521 31.963955 
L 281.164895 32.423053 
L 281.741269 32.904012 
L 282.317644 33.407872 
L 282.894018 33.935723 
L 283.470392 34.488709 
L 284.046766 35.068025 
L 284.62314 35.674926 
L 285.199515 36.310725 
L 285.775889 36.976799 
L 286.352263 37.674587 
L 286.928637 38.405602 
L 287.505012 39.171424 
L 288.081386 39.973711 
L 288.65776 40.8142 
L 289.234134 41.69471 
L 289.810509 42.617145 
L 290.386883 43.583503 
L 290.963257 44.595875 
L 291.539631 45.656452 
L 292.116006 46.767529 
L 292.69238 47.931511 
L 293.268754 49.150916 
L 293.845128 50.428385 
L 294.421502 51.766681 
L 294.997877 53.168701 
L 295.574251 54.637479 
L 296.150625 56.176195 
L 296.726999 57.788177 
L 297.303374 59.476915 
L 297.879748 61.246064 
L 298.456122 63.099452 
L 299.032496 65.041091 
L 299.608871 67.075182 
L 300.185245 69.206127 
" clip-path="url(#p7f21580c72)" style="fill: none; stroke: #ff0000; stroke-opacity: 0.5; stroke-width: 1.5; stroke-linecap: square"/>
   </g>
   <g id="LineCollection_4">
    <path d="M 291.596701 85.838127 
L 291.596701 20.357812 
" clip-path="url(#p7f21580c72)" style="fill: none; stroke: #000000; stroke-width: 1.5"/>
   </g>
   <g id="LineCollection_5">
    <path d="M 244.305151 85.838127 
L 244.305151 20.357812 
" clip-path="url(#p7f21580c72)" style="fill: none; stroke: #808080; stroke-width: 1.5"/>
   </g>
   <g id="LineCollection_6">
    <path d="M 249.625923 85.838127 
L 249.625923 20.357812 
" clip-path="url(#p7f21580c72)" style="fill: none; stroke: #d3d3d3; stroke-width: 1.5"/>
   </g>
   <g id="patch_8">
    <path d="M 240.271143 85.838127 
L 240.271143 20.357812 
" style="fill: none; stroke: #000000; stroke-width: 0.8; stroke-linejoin: miter; stroke-linecap: square"/>
   </g>
   <g id="patch_9">
    <path d="M 303.038297 85.838127 
L 303.038297 20.357812 
" style="fill: none; stroke: #000000; stroke-width: 0.8; stroke-linejoin: miter; stroke-linecap: square"/>
   </g>
   <g id="patch_10">
    <path d="M 240.271143 85.838127 
L 303.038297 85.838127 
" style="fill: none; stroke: #000000; stroke-width: 0.8; stroke-linejoin: miter; stroke-linecap: square"/>
   </g>
   <g id="patch_11">
    <path d="M 240.271143 20.357812 
L 303.038297 20.357812 
" style="fill: none; stroke: #000000; stroke-width: 0.8; stroke-linejoin: miter; stroke-linecap: square"/>
   </g>
   <g id="text_18">
    <!-- Accuracy -->
    <g transform="translate(251.093783 14.357812) scale(0.1 -0.1)">
     <use xlink:href="#ArialMT-41"/>
     <use xlink:href="#ArialMT-63" x="66.699219"/>
     <use xlink:href="#ArialMT-63" x="116.699219"/>
     <use xlink:href="#ArialMT-75" x="166.699219"/>
     <use xlink:href="#ArialMT-72" x="222.314453"/>
     <use xlink:href="#ArialMT-61" x="255.615234"/>
     <use xlink:href="#ArialMT-63" x="311.230469"/>
     <use xlink:href="#ArialMT-79" x="361.230469"/>
    </g>
   </g>
   <g id="legend_1">
    <g id="patch_12">
     <path d="M 321.191728 94.93419 
L 453.955478 94.93419 
Q 455.555478 94.93419 455.555478 93.33419 
L 455.555478 13.96419 
Q 455.555478 12.36419 453.955478 12.36419 
L 321.191728 12.36419 
Q 319.591728 12.36419 319.591728 13.96419 
L 319.591728 93.33419 
Q 319.591728 94.93419 321.191728 94.93419 
z
" style="fill: #ffffff; opacity: 0.8; stroke: #cccccc; stroke-linejoin: miter"/>
    </g>
    <g id="line2d_57">
     <path d="M 322.791728 18.49044 
L 330.791728 18.49044 
L 338.791728 18.49044 
" style="fill: none; stroke: #fe9d08; stroke-opacity: 0.5; stroke-width: 1.5; stroke-linecap: square"/>
    </g>
    <g id="text_19">
     <!-- HRS model -->
     <g transform="translate(345.191728 21.29044) scale(0.08 -0.08)">
      <defs>
       <path id="ArialMT-48" d="M 513 0 
L 513 4581 
L 1119 4581 
L 1119 2700 
L 3500 2700 
L 3500 4581 
L 4106 4581 
L 4106 0 
L 3500 0 
L 3500 2159 
L 1119 2159 
L 1119 0 
L 513 0 
z
" transform="scale(0.015625)"/>
       <path id="ArialMT-52" d="M 503 0 
L 503 4581 
L 2534 4581 
Q 3147 4581 3465 4457 
Q 3784 4334 3975 4021 
Q 4166 3709 4166 3331 
Q 4166 2844 3850 2509 
Q 3534 2175 2875 2084 
Q 3116 1969 3241 1856 
Q 3506 1613 3744 1247 
L 4541 0 
L 3778 0 
L 3172 953 
Q 2906 1366 2734 1584 
Q 2563 1803 2427 1890 
Q 2291 1978 2150 2013 
Q 2047 2034 1813 2034 
L 1109 2034 
L 1109 0 
L 503 0 
z
M 1109 2559 
L 2413 2559 
Q 2828 2559 3062 2645 
Q 3297 2731 3419 2920 
Q 3541 3109 3541 3331 
Q 3541 3656 3305 3865 
Q 3069 4075 2559 4075 
L 1109 4075 
L 1109 2559 
z
" transform="scale(0.015625)"/>
       <path id="ArialMT-53" d="M 288 1472 
L 859 1522 
Q 900 1178 1048 958 
Q 1197 738 1509 602 
Q 1822 466 2213 466 
Q 2559 466 2825 569 
Q 3091 672 3220 851 
Q 3350 1031 3350 1244 
Q 3350 1459 3225 1620 
Q 3100 1781 2813 1891 
Q 2628 1963 1997 2114 
Q 1366 2266 1113 2400 
Q 784 2572 623 2826 
Q 463 3081 463 3397 
Q 463 3744 659 4045 
Q 856 4347 1234 4503 
Q 1613 4659 2075 4659 
Q 2584 4659 2973 4495 
Q 3363 4331 3572 4012 
Q 3781 3694 3797 3291 
L 3216 3247 
Q 3169 3681 2898 3903 
Q 2628 4125 2100 4125 
Q 1550 4125 1298 3923 
Q 1047 3722 1047 3438 
Q 1047 3191 1225 3031 
Q 1400 2872 2139 2705 
Q 2878 2538 3153 2413 
Q 3553 2228 3743 1945 
Q 3934 1663 3934 1294 
Q 3934 928 3725 604 
Q 3516 281 3123 101 
Q 2731 -78 2241 -78 
Q 1619 -78 1198 103 
Q 778 284 539 648 
Q 300 1013 288 1472 
z
" transform="scale(0.015625)"/>
       <path id="ArialMT-6d" d="M 422 0 
L 422 3319 
L 925 3319 
L 925 2853 
Q 1081 3097 1340 3245 
Q 1600 3394 1931 3394 
Q 2300 3394 2536 3241 
Q 2772 3088 2869 2813 
Q 3263 3394 3894 3394 
Q 4388 3394 4653 3120 
Q 4919 2847 4919 2278 
L 4919 0 
L 4359 0 
L 4359 2091 
Q 4359 2428 4304 2576 
Q 4250 2725 4106 2815 
Q 3963 2906 3769 2906 
Q 3419 2906 3187 2673 
Q 2956 2441 2956 1928 
L 2956 0 
L 2394 0 
L 2394 2156 
Q 2394 2531 2256 2718 
Q 2119 2906 1806 2906 
Q 1569 2906 1367 2781 
Q 1166 2656 1075 2415 
Q 984 2175 984 1722 
L 984 0 
L 422 0 
z
" transform="scale(0.015625)"/>
      </defs>
      <use xlink:href="#ArialMT-48"/>
      <use xlink:href="#ArialMT-52" x="72.216797"/>
      <use xlink:href="#ArialMT-53" x="144.433594"/>
      <use xlink:href="#ArialMT-20" x="211.132812"/>
      <use xlink:href="#ArialMT-6d" x="238.916016"/>
      <use xlink:href="#ArialMT-6f" x="322.216797"/>
      <use xlink:href="#ArialMT-64" x="377.832031"/>
      <use xlink:href="#ArialMT-65" x="433.447266"/>
      <use xlink:href="#ArialMT-6c" x="489.0625"/>
     </g>
    </g>
    <g id="line2d_58">
     <path d="M 322.791728 29.90419 
L 330.791728 29.90419 
L 338.791728 29.90419 
" style="fill: none; stroke: #f08080; stroke-opacity: 0.5; stroke-width: 1.5; stroke-linecap: square"/>
    </g>
    <g id="text_20">
     <!-- Abraham (2017) -->
     <g transform="translate(345.191728 32.70419) scale(0.08 -0.08)">
      <defs>
       <path id="ArialMT-62" d="M 941 0 
L 419 0 
L 419 4581 
L 981 4581 
L 981 2947 
Q 1338 3394 1891 3394 
Q 2197 3394 2470 3270 
Q 2744 3147 2920 2923 
Q 3097 2700 3197 2384 
Q 3297 2069 3297 1709 
Q 3297 856 2875 390 
Q 2453 -75 1863 -75 
Q 1275 -75 941 416 
L 941 0 
z
M 934 1684 
Q 934 1088 1097 822 
Q 1363 388 1816 388 
Q 2184 388 2453 708 
Q 2722 1028 2722 1663 
Q 2722 2313 2464 2622 
Q 2206 2931 1841 2931 
Q 1472 2931 1203 2611 
Q 934 2291 934 1684 
z
" transform="scale(0.015625)"/>
       <path id="ArialMT-68" d="M 422 0 
L 422 4581 
L 984 4581 
L 984 2938 
Q 1378 3394 1978 3394 
Q 2347 3394 2619 3248 
Q 2891 3103 3008 2847 
Q 3125 2591 3125 2103 
L 3125 0 
L 2563 0 
L 2563 2103 
Q 2563 2525 2380 2717 
Q 2197 2909 1863 2909 
Q 1613 2909 1392 2779 
Q 1172 2650 1078 2428 
Q 984 2206 984 1816 
L 984 0 
L 422 0 
z
" transform="scale(0.015625)"/>
       <path id="ArialMT-28" d="M 1497 -1347 
Q 1031 -759 709 28 
Q 388 816 388 1659 
Q 388 2403 628 3084 
Q 909 3875 1497 4659 
L 1900 4659 
Q 1522 4009 1400 3731 
Q 1209 3300 1100 2831 
Q 966 2247 966 1656 
Q 966 153 1900 -1347 
L 1497 -1347 
z
" transform="scale(0.015625)"/>
       <path id="ArialMT-32" d="M 3222 541 
L 3222 0 
L 194 0 
Q 188 203 259 391 
Q 375 700 629 1000 
Q 884 1300 1366 1694 
Q 2113 2306 2375 2664 
Q 2638 3022 2638 3341 
Q 2638 3675 2398 3904 
Q 2159 4134 1775 4134 
Q 1369 4134 1125 3890 
Q 881 3647 878 3216 
L 300 3275 
Q 359 3922 746 4261 
Q 1134 4600 1788 4600 
Q 2447 4600 2831 4234 
Q 3216 3869 3216 3328 
Q 3216 3053 3103 2787 
Q 2991 2522 2730 2228 
Q 2469 1934 1863 1422 
Q 1356 997 1212 845 
Q 1069 694 975 541 
L 3222 541 
z
" transform="scale(0.015625)"/>
       <path id="ArialMT-37" d="M 303 3981 
L 303 4522 
L 3269 4522 
L 3269 4084 
Q 2831 3619 2401 2847 
Q 1972 2075 1738 1259 
Q 1569 684 1522 0 
L 944 0 
Q 953 541 1156 1306 
Q 1359 2072 1739 2783 
Q 2119 3494 2547 3981 
L 303 3981 
z
" transform="scale(0.015625)"/>
       <path id="ArialMT-29" d="M 791 -1347 
L 388 -1347 
Q 1322 153 1322 1656 
Q 1322 2244 1188 2822 
Q 1081 3291 891 3722 
Q 769 4003 388 4659 
L 791 4659 
Q 1378 3875 1659 3084 
Q 1900 2403 1900 1659 
Q 1900 816 1576 28 
Q 1253 -759 791 -1347 
z
" transform="scale(0.015625)"/>
      </defs>
      <use xlink:href="#ArialMT-41"/>
      <use xlink:href="#ArialMT-62" x="66.699219"/>
      <use xlink:href="#ArialMT-72" x="122.314453"/>
      <use xlink:href="#ArialMT-61" x="155.615234"/>
      <use xlink:href="#ArialMT-68" x="211.230469"/>
      <use xlink:href="#ArialMT-61" x="266.845703"/>
      <use xlink:href="#ArialMT-6d" x="322.460938"/>
      <use xlink:href="#ArialMT-20" x="405.761719"/>
      <use xlink:href="#ArialMT-28" x="433.544922"/>
      <use xlink:href="#ArialMT-32" x="466.845703"/>
      <use xlink:href="#ArialMT-30" x="522.460938"/>
      <use xlink:href="#ArialMT-31" x="578.076172"/>
      <use xlink:href="#ArialMT-37" x="633.691406"/>
      <use xlink:href="#ArialMT-29" x="689.306641"/>
     </g>
    </g>
    <g id="line2d_59">
     <path d="M 322.791728 41.41169 
L 330.791728 41.41169 
L 338.791728 41.41169 
" style="fill: none; stroke: #b22222; stroke-opacity: 0.5; stroke-width: 1.5; stroke-linecap: square"/>
    </g>
    <g id="text_21">
     <!-- Heinsfeld (2018) -->
     <g transform="translate(345.191728 44.21169) scale(0.08 -0.08)">
      <defs>
       <path id="ArialMT-6e" d="M 422 0 
L 422 3319 
L 928 3319 
L 928 2847 
Q 1294 3394 1984 3394 
Q 2284 3394 2536 3286 
Q 2788 3178 2913 3003 
Q 3038 2828 3088 2588 
Q 3119 2431 3119 2041 
L 3119 0 
L 2556 0 
L 2556 2019 
Q 2556 2363 2490 2533 
Q 2425 2703 2258 2804 
Q 2091 2906 1866 2906 
Q 1506 2906 1245 2678 
Q 984 2450 984 1813 
L 984 0 
L 422 0 
z
" transform="scale(0.015625)"/>
       <path id="ArialMT-66" d="M 556 0 
L 556 2881 
L 59 2881 
L 59 3319 
L 556 3319 
L 556 3672 
Q 556 4006 616 4169 
Q 697 4388 901 4523 
Q 1106 4659 1475 4659 
Q 1713 4659 2000 4603 
L 1916 4113 
Q 1741 4144 1584 4144 
Q 1328 4144 1222 4034 
Q 1116 3925 1116 3625 
L 1116 3319 
L 1763 3319 
L 1763 2881 
L 1116 2881 
L 1116 0 
L 556 0 
z
" transform="scale(0.015625)"/>
       <path id="ArialMT-38" d="M 1131 2484 
Q 781 2613 612 2850 
Q 444 3088 444 3419 
Q 444 3919 803 4259 
Q 1163 4600 1759 4600 
Q 2359 4600 2725 4251 
Q 3091 3903 3091 3403 
Q 3091 3084 2923 2848 
Q 2756 2613 2416 2484 
Q 2838 2347 3058 2040 
Q 3278 1734 3278 1309 
Q 3278 722 2862 322 
Q 2447 -78 1769 -78 
Q 1091 -78 675 323 
Q 259 725 259 1325 
Q 259 1772 486 2073 
Q 713 2375 1131 2484 
z
M 1019 3438 
Q 1019 3113 1228 2906 
Q 1438 2700 1772 2700 
Q 2097 2700 2305 2904 
Q 2513 3109 2513 3406 
Q 2513 3716 2298 3927 
Q 2084 4138 1766 4138 
Q 1444 4138 1231 3931 
Q 1019 3725 1019 3438 
z
M 838 1322 
Q 838 1081 952 856 
Q 1066 631 1291 507 
Q 1516 384 1775 384 
Q 2178 384 2440 643 
Q 2703 903 2703 1303 
Q 2703 1709 2433 1975 
Q 2163 2241 1756 2241 
Q 1359 2241 1098 1978 
Q 838 1716 838 1322 
z
" transform="scale(0.015625)"/>
      </defs>
      <use xlink:href="#ArialMT-48"/>
      <use xlink:href="#ArialMT-65" x="72.216797"/>
      <use xlink:href="#ArialMT-69" x="127.832031"/>
      <use xlink:href="#ArialMT-6e" x="150.048828"/>
      <use xlink:href="#ArialMT-73" x="205.664062"/>
      <use xlink:href="#ArialMT-66" x="255.664062"/>
      <use xlink:href="#ArialMT-65" x="283.447266"/>
      <use xlink:href="#ArialMT-6c" x="339.0625"/>
      <use xlink:href="#ArialMT-64" x="361.279297"/>
      <use xlink:href="#ArialMT-20" x="416.894531"/>
      <use xlink:href="#ArialMT-28" x="444.677734"/>
      <use xlink:href="#ArialMT-32" x="477.978516"/>
      <use xlink:href="#ArialMT-30" x="533.59375"/>
      <use xlink:href="#ArialMT-31" x="589.208984"/>
      <use xlink:href="#ArialMT-38" x="644.824219"/>
      <use xlink:href="#ArialMT-29" x="700.439453"/>
     </g>
    </g>
    <g id="line2d_60">
     <path d="M 322.791728 52.91919 
L 330.791728 52.91919 
L 338.791728 52.91919 
" style="fill: none; stroke: #ff0000; stroke-opacity: 0.5; stroke-width: 1.5; stroke-linecap: square"/>
    </g>
    <g id="text_22">
     <!-- Traut (2022) -->
     <g transform="translate(345.191728 55.71919) scale(0.08 -0.08)">
      <defs>
       <path id="ArialMT-54" d="M 1659 0 
L 1659 4041 
L 150 4041 
L 150 4581 
L 3781 4581 
L 3781 4041 
L 2266 4041 
L 2266 0 
L 1659 0 
z
" transform="scale(0.015625)"/>
      </defs>
      <use xlink:href="#ArialMT-54"/>
      <use xlink:href="#ArialMT-72" x="57.333984"/>
      <use xlink:href="#ArialMT-61" x="90.634766"/>
      <use xlink:href="#ArialMT-75" x="146.25"/>
      <use xlink:href="#ArialMT-74" x="201.865234"/>
      <use xlink:href="#ArialMT-20" x="229.648438"/>
      <use xlink:href="#ArialMT-28" x="257.431641"/>
      <use xlink:href="#ArialMT-32" x="290.732422"/>
      <use xlink:href="#ArialMT-30" x="346.347656"/>
      <use xlink:href="#ArialMT-32" x="401.962891"/>
      <use xlink:href="#ArialMT-32" x="457.578125"/>
      <use xlink:href="#ArialMT-29" x="513.193359"/>
     </g>
    </g>
    <g id="line2d_61">
     <path d="M 322.791728 64.32919 
L 338.791728 64.32919 
" style="fill: none; stroke: #000000; stroke-width: 1.5"/>
    </g>
    <g id="text_23">
     <!-- balanced prevalence -->
     <g transform="translate(345.191728 67.12919) scale(0.08 -0.08)">
      <defs>
       <path id="ArialMT-70" d="M 422 -1272 
L 422 3319 
L 934 3319 
L 934 2888 
Q 1116 3141 1344 3267 
Q 1572 3394 1897 3394 
Q 2322 3394 2647 3175 
Q 2972 2956 3137 2557 
Q 3303 2159 3303 1684 
Q 3303 1175 3120 767 
Q 2938 359 2589 142 
Q 2241 -75 1856 -75 
Q 1575 -75 1351 44 
Q 1128 163 984 344 
L 984 -1272 
L 422 -1272 
z
M 931 1641 
Q 931 1000 1190 694 
Q 1450 388 1819 388 
Q 2194 388 2461 705 
Q 2728 1022 2728 1688 
Q 2728 2322 2467 2637 
Q 2206 2953 1844 2953 
Q 1484 2953 1207 2617 
Q 931 2281 931 1641 
z
" transform="scale(0.015625)"/>
      </defs>
      <use xlink:href="#ArialMT-62"/>
      <use xlink:href="#ArialMT-61" x="55.615234"/>
      <use xlink:href="#ArialMT-6c" x="111.230469"/>
      <use xlink:href="#ArialMT-61" x="133.447266"/>
      <use xlink:href="#ArialMT-6e" x="189.0625"/>
      <use xlink:href="#ArialMT-63" x="244.677734"/>
      <use xlink:href="#ArialMT-65" x="294.677734"/>
      <use xlink:href="#ArialMT-64" x="350.292969"/>
      <use xlink:href="#ArialMT-20" x="405.908203"/>
      <use xlink:href="#ArialMT-70" x="433.691406"/>
      <use xlink:href="#ArialMT-72" x="489.306641"/>
      <use xlink:href="#ArialMT-65" x="522.607422"/>
      <use xlink:href="#ArialMT-76" x="578.222656"/>
      <use xlink:href="#ArialMT-61" x="628.222656"/>
      <use xlink:href="#ArialMT-6c" x="683.837891"/>
      <use xlink:href="#ArialMT-65" x="706.054688"/>
      <use xlink:href="#ArialMT-6e" x="761.669922"/>
      <use xlink:href="#ArialMT-63" x="817.285156"/>
      <use xlink:href="#ArialMT-65" x="867.285156"/>
     </g>
    </g>
    <g id="line2d_62">
     <path d="M 322.791728 75.74294 
L 338.791728 75.74294 
" style="fill: none; stroke: #808080; stroke-width: 1.5"/>
    </g>
    <g id="text_24">
     <!-- global prevalence (Bai (2019)) -->
     <g transform="translate(345.191728 78.54294) scale(0.08 -0.08)">
      <defs>
       <path id="ArialMT-67" d="M 319 -275 
L 866 -356 
Q 900 -609 1056 -725 
Q 1266 -881 1628 -881 
Q 2019 -881 2231 -725 
Q 2444 -569 2519 -288 
Q 2563 -116 2559 434 
Q 2191 0 1641 0 
Q 956 0 581 494 
Q 206 988 206 1678 
Q 206 2153 378 2554 
Q 550 2956 876 3175 
Q 1203 3394 1644 3394 
Q 2231 3394 2613 2919 
L 2613 3319 
L 3131 3319 
L 3131 450 
Q 3131 -325 2973 -648 
Q 2816 -972 2473 -1159 
Q 2131 -1347 1631 -1347 
Q 1038 -1347 672 -1080 
Q 306 -813 319 -275 
z
M 784 1719 
Q 784 1066 1043 766 
Q 1303 466 1694 466 
Q 2081 466 2343 764 
Q 2606 1063 2606 1700 
Q 2606 2309 2336 2618 
Q 2066 2928 1684 2928 
Q 1309 2928 1046 2623 
Q 784 2319 784 1719 
z
" transform="scale(0.015625)"/>
       <path id="ArialMT-42" d="M 469 0 
L 469 4581 
L 2188 4581 
Q 2713 4581 3030 4442 
Q 3347 4303 3526 4014 
Q 3706 3725 3706 3409 
Q 3706 3116 3547 2856 
Q 3388 2597 3066 2438 
Q 3481 2316 3704 2022 
Q 3928 1728 3928 1328 
Q 3928 1006 3792 729 
Q 3656 453 3456 303 
Q 3256 153 2954 76 
Q 2653 0 2216 0 
L 469 0 
z
M 1075 2656 
L 2066 2656 
Q 2469 2656 2644 2709 
Q 2875 2778 2992 2937 
Q 3109 3097 3109 3338 
Q 3109 3566 3000 3739 
Q 2891 3913 2687 3977 
Q 2484 4041 1991 4041 
L 1075 4041 
L 1075 2656 
z
M 1075 541 
L 2216 541 
Q 2509 541 2628 563 
Q 2838 600 2978 687 
Q 3119 775 3209 942 
Q 3300 1109 3300 1328 
Q 3300 1584 3169 1773 
Q 3038 1963 2805 2039 
Q 2572 2116 2134 2116 
L 1075 2116 
L 1075 541 
z
" transform="scale(0.015625)"/>
       <path id="ArialMT-39" d="M 350 1059 
L 891 1109 
Q 959 728 1153 556 
Q 1347 384 1650 384 
Q 1909 384 2104 503 
Q 2300 622 2425 820 
Q 2550 1019 2634 1356 
Q 2719 1694 2719 2044 
Q 2719 2081 2716 2156 
Q 2547 1888 2255 1720 
Q 1963 1553 1622 1553 
Q 1053 1553 659 1965 
Q 266 2378 266 3053 
Q 266 3750 677 4175 
Q 1088 4600 1706 4600 
Q 2153 4600 2523 4359 
Q 2894 4119 3086 3673 
Q 3278 3228 3278 2384 
Q 3278 1506 3087 986 
Q 2897 466 2520 194 
Q 2144 -78 1638 -78 
Q 1100 -78 759 220 
Q 419 519 350 1059 
z
M 2653 3081 
Q 2653 3566 2395 3850 
Q 2138 4134 1775 4134 
Q 1400 4134 1122 3828 
Q 844 3522 844 3034 
Q 844 2597 1108 2323 
Q 1372 2050 1759 2050 
Q 2150 2050 2401 2323 
Q 2653 2597 2653 3081 
z
" transform="scale(0.015625)"/>
      </defs>
      <use xlink:href="#ArialMT-67"/>
      <use xlink:href="#ArialMT-6c" x="55.615234"/>
      <use xlink:href="#ArialMT-6f" x="77.832031"/>
      <use xlink:href="#ArialMT-62" x="133.447266"/>
      <use xlink:href="#ArialMT-61" x="189.0625"/>
      <use xlink:href="#ArialMT-6c" x="244.677734"/>
      <use xlink:href="#ArialMT-20" x="266.894531"/>
      <use xlink:href="#ArialMT-70" x="294.677734"/>
      <use xlink:href="#ArialMT-72" x="350.292969"/>
      <use xlink:href="#ArialMT-65" x="383.59375"/>
      <use xlink:href="#ArialMT-76" x="439.208984"/>
      <use xlink:href="#ArialMT-61" x="489.208984"/>
      <use xlink:href="#ArialMT-6c" x="544.824219"/>
      <use xlink:href="#ArialMT-65" x="567.041016"/>
      <use xlink:href="#ArialMT-6e" x="622.65625"/>
      <use xlink:href="#ArialMT-63" x="678.271484"/>
      <use xlink:href="#ArialMT-65" x="728.271484"/>
      <use xlink:href="#ArialMT-20" x="783.886719"/>
      <use xlink:href="#ArialMT-28" x="811.669922"/>
      <use xlink:href="#ArialMT-42" x="844.970703"/>
      <use xlink:href="#ArialMT-61" x="911.669922"/>
      <use xlink:href="#ArialMT-69" x="967.285156"/>
      <use xlink:href="#ArialMT-20" x="989.501953"/>
      <use xlink:href="#ArialMT-28" x="1017.285156"/>
      <use xlink:href="#ArialMT-32" x="1050.585938"/>
      <use xlink:href="#ArialMT-30" x="1106.201172"/>
      <use xlink:href="#ArialMT-31" x="1161.816406"/>
      <use xlink:href="#ArialMT-39" x="1217.431641"/>
      <use xlink:href="#ArialMT-29" x="1273.046875"/>
      <use xlink:href="#ArialMT-29" x="1306.347656"/>
     </g>
    </g>
    <g id="line2d_63">
     <path d="M 322.791728 87.25044 
L 338.791728 87.25044 
" style="fill: none; stroke: #d3d3d3; stroke-width: 1.5"/>
    </g>
    <g id="text_25">
     <!-- US prevalence (Baio (2018)) -->
     <g transform="translate(345.191728 90.05044) scale(0.08 -0.08)">
      <defs>
       <path id="ArialMT-55" d="M 3500 4581 
L 4106 4581 
L 4106 1934 
Q 4106 1244 3950 837 
Q 3794 431 3386 176 
Q 2978 -78 2316 -78 
Q 1672 -78 1262 144 
Q 853 366 678 786 
Q 503 1206 503 1934 
L 503 4581 
L 1109 4581 
L 1109 1938 
Q 1109 1341 1220 1058 
Q 1331 775 1601 622 
Q 1872 469 2263 469 
Q 2931 469 3215 772 
Q 3500 1075 3500 1938 
L 3500 4581 
z
" transform="scale(0.015625)"/>
      </defs>
      <use xlink:href="#ArialMT-55"/>
      <use xlink:href="#ArialMT-53" x="72.216797"/>
      <use xlink:href="#ArialMT-20" x="138.916016"/>
      <use xlink:href="#ArialMT-70" x="166.699219"/>
      <use xlink:href="#ArialMT-72" x="222.314453"/>
      <use xlink:href="#ArialMT-65" x="255.615234"/>
      <use xlink:href="#ArialMT-76" x="311.230469"/>
      <use xlink:href="#ArialMT-61" x="361.230469"/>
      <use xlink:href="#ArialMT-6c" x="416.845703"/>
      <use xlink:href="#ArialMT-65" x="439.0625"/>
      <use xlink:href="#ArialMT-6e" x="494.677734"/>
      <use xlink:href="#ArialMT-63" x="550.292969"/>
      <use xlink:href="#ArialMT-65" x="600.292969"/>
      <use xlink:href="#ArialMT-20" x="655.908203"/>
      <use xlink:href="#ArialMT-28" x="683.691406"/>
      <use xlink:href="#ArialMT-42" x="716.992188"/>
      <use xlink:href="#ArialMT-61" x="783.691406"/>
      <use xlink:href="#ArialMT-69" x="839.306641"/>
      <use xlink:href="#ArialMT-6f" x="861.523438"/>
      <use xlink:href="#ArialMT-20" x="917.138672"/>
      <use xlink:href="#ArialMT-28" x="944.921875"/>
      <use xlink:href="#ArialMT-32" x="978.222656"/>
      <use xlink:href="#ArialMT-30" x="1033.837891"/>
      <use xlink:href="#ArialMT-31" x="1089.453125"/>
      <use xlink:href="#ArialMT-38" x="1145.068359"/>
      <use xlink:href="#ArialMT-29" x="1200.683594"/>
      <use xlink:href="#ArialMT-29" x="1233.984375"/>
     </g>
    </g>
   </g>
  </g>
  <g id="axes_3">
   <g id="patch_13">
    <path d="M 139.843697 85.838127 
L 202.610851 85.838127 
L 202.610851 20.357812 
L 139.843697 20.357812 
L 139.843697 85.838127 
z
" style="fill: none"/>
   </g>
   <g id="matplotlib.axis_5">
    <g id="xtick_43">
     <g id="line2d_64">
      <g>
       <use xlink:href="#m3980118b55" x="142.696749" y="85.838127" style="stroke: #000000; stroke-width: 0.8"/>
      </g>
     </g>
     <g id="text_26">
      <!-- 1% -->
      <g transform="translate(139.59742 104.656921) rotate(-40) scale(0.08 -0.08)">
       <use xlink:href="#ArialMT-31"/>
       <use xlink:href="#ArialMT-25" x="55.615234"/>
      </g>
     </g>
    </g>
    <g id="xtick_44">
     <g id="line2d_65">
      <g>
       <use xlink:href="#m3980118b55" x="171.227274" y="85.838127" style="stroke: #000000; stroke-width: 0.8"/>
      </g>
     </g>
     <g id="text_27">
      <!-- 10% -->
      <g transform="translate(166.423974 107.516523) rotate(-40) scale(0.08 -0.08)">
       <use xlink:href="#ArialMT-31"/>
       <use xlink:href="#ArialMT-30" x="55.615234"/>
       <use xlink:href="#ArialMT-25" x="111.230469"/>
      </g>
     </g>
    </g>
    <g id="xtick_45">
     <g id="line2d_66">
      <g>
       <use xlink:href="#m3980118b55" x="191.169255" y="85.838127" style="stroke: #000000; stroke-width: 0.8"/>
      </g>
     </g>
     <g id="text_28">
      <!-- 50% -->
      <g transform="translate(186.365955 107.516523) rotate(-40) scale(0.08 -0.08)">
       <use xlink:href="#ArialMT-35"/>
       <use xlink:href="#ArialMT-30" x="55.615234"/>
       <use xlink:href="#ArialMT-25" x="111.230469"/>
      </g>
     </g>
    </g>
    <g id="xtick_46">
     <g id="line2d_67">
      <g>
       <use xlink:href="#m3980118b55" x="199.757798" y="85.838127" style="stroke: #000000; stroke-width: 0.8"/>
      </g>
     </g>
     <g id="text_29">
      <!-- 100% -->
      <g transform="translate(193.250529 110.376124) rotate(-40) scale(0.08 -0.08)">
       <use xlink:href="#ArialMT-31"/>
       <use xlink:href="#ArialMT-30" x="55.615234"/>
       <use xlink:href="#ArialMT-30" x="111.230469"/>
       <use xlink:href="#ArialMT-25" x="166.845703"/>
      </g>
     </g>
    </g>
    <g id="xtick_47">
     <g id="line2d_68">
      <g>
       <use xlink:href="#m5e0ce3d0eb" x="139.931856" y="85.838127" style="stroke: #000000; stroke-width: 0.6"/>
      </g>
     </g>
    </g>
    <g id="xtick_48">
     <g id="line2d_69">
      <g>
       <use xlink:href="#m5e0ce3d0eb" x="141.391264" y="85.838127" style="stroke: #000000; stroke-width: 0.6"/>
      </g>
     </g>
    </g>
    <g id="xtick_49">
     <g id="line2d_70">
      <g>
       <use xlink:href="#m5e0ce3d0eb" x="151.285293" y="85.838127" style="stroke: #000000; stroke-width: 0.6"/>
      </g>
     </g>
    </g>
    <g id="xtick_50">
     <g id="line2d_71">
      <g>
       <use xlink:href="#m5e0ce3d0eb" x="156.309269" y="85.838127" style="stroke: #000000; stroke-width: 0.6"/>
      </g>
     </g>
    </g>
    <g id="xtick_51">
     <g id="line2d_72">
      <g>
       <use xlink:href="#m5e0ce3d0eb" x="159.873836" y="85.838127" style="stroke: #000000; stroke-width: 0.6"/>
      </g>
     </g>
    </g>
    <g id="xtick_52">
     <g id="line2d_73">
      <g>
       <use xlink:href="#m5e0ce3d0eb" x="162.63873" y="85.838127" style="stroke: #000000; stroke-width: 0.6"/>
      </g>
     </g>
    </g>
    <g id="xtick_53">
     <g id="line2d_74">
      <g>
       <use xlink:href="#m5e0ce3d0eb" x="164.897812" y="85.838127" style="stroke: #000000; stroke-width: 0.6"/>
      </g>
     </g>
    </g>
    <g id="xtick_54">
     <g id="line2d_75">
      <g>
       <use xlink:href="#m5e0ce3d0eb" x="166.807839" y="85.838127" style="stroke: #000000; stroke-width: 0.6"/>
      </g>
     </g>
    </g>
    <g id="xtick_55">
     <g id="line2d_76">
      <g>
       <use xlink:href="#m5e0ce3d0eb" x="168.46238" y="85.838127" style="stroke: #000000; stroke-width: 0.6"/>
      </g>
     </g>
    </g>
    <g id="xtick_56">
     <g id="line2d_77">
      <g>
       <use xlink:href="#m5e0ce3d0eb" x="169.921788" y="85.838127" style="stroke: #000000; stroke-width: 0.6"/>
      </g>
     </g>
    </g>
    <g id="xtick_57">
     <g id="line2d_78">
      <g>
       <use xlink:href="#m5e0ce3d0eb" x="179.815817" y="85.838127" style="stroke: #000000; stroke-width: 0.6"/>
      </g>
     </g>
    </g>
    <g id="xtick_58">
     <g id="line2d_79">
      <g>
       <use xlink:href="#m5e0ce3d0eb" x="184.839793" y="85.838127" style="stroke: #000000; stroke-width: 0.6"/>
      </g>
     </g>
    </g>
    <g id="xtick_59">
     <g id="line2d_80">
      <g>
       <use xlink:href="#m5e0ce3d0eb" x="188.404361" y="85.838127" style="stroke: #000000; stroke-width: 0.6"/>
      </g>
     </g>
    </g>
    <g id="xtick_60">
     <g id="line2d_81">
      <g>
       <use xlink:href="#m5e0ce3d0eb" x="193.428337" y="85.838127" style="stroke: #000000; stroke-width: 0.6"/>
      </g>
     </g>
    </g>
    <g id="xtick_61">
     <g id="line2d_82">
      <g>
       <use xlink:href="#m5e0ce3d0eb" x="195.338364" y="85.838127" style="stroke: #000000; stroke-width: 0.6"/>
      </g>
     </g>
    </g>
    <g id="xtick_62">
     <g id="line2d_83">
      <g>
       <use xlink:href="#m5e0ce3d0eb" x="196.992905" y="85.838127" style="stroke: #000000; stroke-width: 0.6"/>
      </g>
     </g>
    </g>
    <g id="xtick_63">
     <g id="line2d_84">
      <g>
       <use xlink:href="#m5e0ce3d0eb" x="198.452313" y="85.838127" style="stroke: #000000; stroke-width: 0.6"/>
      </g>
     </g>
    </g>
    <g id="text_30">
     <!-- ASD Prevalence in dataset -->
     <g transform="translate(111.474149 122.751947) scale(0.1 -0.1)">
      <defs>
       <path id="ArialMT-44" d="M 494 0 
L 494 4581 
L 2072 4581 
Q 2606 4581 2888 4516 
Q 3281 4425 3559 4188 
Q 3922 3881 4101 3404 
Q 4281 2928 4281 2316 
Q 4281 1794 4159 1391 
Q 4038 988 3847 723 
Q 3656 459 3429 307 
Q 3203 156 2883 78 
Q 2563 0 2147 0 
L 494 0 
z
M 1100 541 
L 2078 541 
Q 2531 541 2789 625 
Q 3047 709 3200 863 
Q 3416 1078 3536 1442 
Q 3656 1806 3656 2325 
Q 3656 3044 3420 3430 
Q 3184 3816 2847 3947 
Q 2603 4041 2063 4041 
L 1100 4041 
L 1100 541 
z
" transform="scale(0.015625)"/>
      </defs>
      <use xlink:href="#ArialMT-41"/>
      <use xlink:href="#ArialMT-53" x="66.699219"/>
      <use xlink:href="#ArialMT-44" x="133.398438"/>
      <use xlink:href="#ArialMT-20" x="205.615234"/>
      <use xlink:href="#ArialMT-50" x="233.398438"/>
      <use xlink:href="#ArialMT-72" x="300.097656"/>
      <use xlink:href="#ArialMT-65" x="333.398438"/>
      <use xlink:href="#ArialMT-76" x="389.013672"/>
      <use xlink:href="#ArialMT-61" x="439.013672"/>
      <use xlink:href="#ArialMT-6c" x="494.628906"/>
      <use xlink:href="#ArialMT-65" x="516.845703"/>
      <use xlink:href="#ArialMT-6e" x="572.460938"/>
      <use xlink:href="#ArialMT-63" x="628.076172"/>
      <use xlink:href="#ArialMT-65" x="678.076172"/>
      <use xlink:href="#ArialMT-20" x="733.691406"/>
      <use xlink:href="#ArialMT-69" x="761.474609"/>
      <use xlink:href="#ArialMT-6e" x="783.691406"/>
      <use xlink:href="#ArialMT-20" x="839.306641"/>
      <use xlink:href="#ArialMT-64" x="867.089844"/>
      <use xlink:href="#ArialMT-61" x="922.705078"/>
      <use xlink:href="#ArialMT-74" x="978.320312"/>
      <use xlink:href="#ArialMT-61" x="1006.103516"/>
      <use xlink:href="#ArialMT-73" x="1061.71875"/>
      <use xlink:href="#ArialMT-65" x="1111.71875"/>
      <use xlink:href="#ArialMT-74" x="1167.333984"/>
     </g>
    </g>
   </g>
   <g id="matplotlib.axis_6">
    <g id="ytick_7">
     <g id="line2d_85">
      <g>
       <use xlink:href="#m16c04dd7ef" x="139.843697" y="85.838127" style="stroke: #000000; stroke-width: 0.8"/>
      </g>
     </g>
     <g id="text_31">
      <!-- 0 -->
      <g transform="translate(127.282759 89.417034) scale(0.1 -0.1)">
       <use xlink:href="#ArialMT-30"/>
      </g>
     </g>
    </g>
    <g id="ytick_8">
     <g id="line2d_86">
      <g>
       <use xlink:href="#m16c04dd7ef" x="139.843697" y="54.657025" style="stroke: #000000; stroke-width: 0.8"/>
      </g>
     </g>
     <g id="text_32">
      <!-- 5 -->
      <g transform="translate(127.282759 58.235931) scale(0.1 -0.1)">
       <use xlink:href="#ArialMT-35"/>
      </g>
     </g>
    </g>
    <g id="ytick_9">
     <g id="line2d_87">
      <g>
       <use xlink:href="#m16c04dd7ef" x="139.843697" y="23.475923" style="stroke: #000000; stroke-width: 0.8"/>
      </g>
     </g>
     <g id="text_33">
      <!-- 10 -->
      <g transform="translate(121.721822 27.054829) scale(0.1 -0.1)">
       <use xlink:href="#ArialMT-31"/>
       <use xlink:href="#ArialMT-30" x="55.615234"/>
      </g>
     </g>
    </g>
    <g id="text_34">
     <!-- RiskRatio -->
     <g transform="translate(116.131822 70.21297) rotate(-90) scale(0.08 -0.08)">
      <defs>
       <path id="ArialMT-6b" d="M 425 0 
L 425 4581 
L 988 4581 
L 988 1969 
L 2319 3319 
L 3047 3319 
L 1778 2088 
L 3175 0 
L 2481 0 
L 1384 1697 
L 988 1316 
L 988 0 
L 425 0 
z
" transform="scale(0.015625)"/>
      </defs>
      <use xlink:href="#ArialMT-52"/>
      <use xlink:href="#ArialMT-69" x="72.216797"/>
      <use xlink:href="#ArialMT-73" x="94.433594"/>
      <use xlink:href="#ArialMT-6b" x="144.433594"/>
      <use xlink:href="#ArialMT-52" x="194.433594"/>
      <use xlink:href="#ArialMT-61" x="266.650391"/>
      <use xlink:href="#ArialMT-74" x="322.265625"/>
      <use xlink:href="#ArialMT-69" x="350.048828"/>
      <use xlink:href="#ArialMT-6f" x="372.265625"/>
     </g>
    </g>
   </g>
   <g id="line2d_88">
    <path d="M 142.696749 35.198266 
L 143.273123 35.364755 
L 143.849497 35.538008 
L 144.425872 35.718247 
L 145.002246 35.905694 
L 145.57862 36.100577 
L 146.154994 36.303124 
L 146.731369 36.513563 
L 147.307743 36.732123 
L 147.884117 36.959034 
L 148.460491 37.194523 
L 149.036866 37.438817 
L 149.61324 37.69214 
L 150.189614 37.954712 
L 150.765988 38.226749 
L 151.342363 38.508463 
L 151.918737 38.800057 
L 152.495111 39.101729 
L 153.071485 39.413666 
L 153.647859 39.736046 
L 154.224234 40.069038 
L 154.800608 40.412794 
L 155.376982 40.767455 
L 155.953356 41.133148 
L 156.529731 41.50998 
L 157.106105 41.898041 
L 157.682479 42.297403 
L 158.258853 42.708115 
L 158.835228 43.130206 
L 159.411602 43.563678 
L 159.987976 44.00851 
L 160.56435 44.464656 
L 161.140725 44.932039 
L 161.717099 45.410556 
L 162.293473 45.900074 
L 162.869847 46.400428 
L 163.446221 46.911424 
L 164.022596 47.432833 
L 164.59897 47.964398 
L 165.175344 48.505824 
L 165.751718 49.056788 
L 166.328093 49.616933 
L 166.904467 50.185869 
L 167.480841 50.763175 
L 168.057215 51.348399 
L 168.63359 51.94106 
L 169.209964 52.540646 
L 169.786338 53.146621 
L 170.362712 53.758422 
L 170.939087 54.375462 
L 171.515461 54.997133 
L 172.091835 55.622808 
L 172.668209 56.251843 
L 173.244583 56.883579 
L 173.820958 57.517347 
L 174.397332 58.152468 
L 174.973706 58.788258 
L 175.55008 59.424029 
L 176.126455 60.059095 
L 176.702829 60.692771 
L 177.279203 61.324378 
L 177.855577 61.953249 
L 178.431952 62.578724 
L 179.008326 63.200161 
L 179.5847 63.816934 
L 180.161074 64.428435 
L 180.737448 65.03408 
L 181.313823 65.633306 
L 181.890197 66.225578 
L 182.466571 66.810387 
L 183.042945 67.387253 
L 183.61932 67.955725 
L 184.195694 68.515384 
L 184.772068 69.065843 
L 185.348442 69.606745 
L 185.924817 70.137769 
L 186.501191 70.658623 
L 187.077565 71.16905 
L 187.653939 71.668825 
L 188.230314 72.157753 
L 188.806688 72.635673 
L 189.383062 73.102452 
L 189.959436 73.557989 
L 190.53581 74.00221 
L 191.112185 74.435068 
L 191.688559 74.856545 
L 192.264933 75.266644 
L 192.841307 75.665395 
L 193.417682 76.052848 
L 193.994056 76.429077 
L 194.57043 76.794171 
L 195.146804 77.148241 
L 195.723179 77.491413 
L 196.299553 77.823828 
L 196.875927 78.145641 
L 197.452301 78.45702 
L 198.028676 78.758143 
L 198.60505 79.049199 
L 199.181424 79.330386 
L 199.757798 79.601907 
" clip-path="url(#p2447e607b4)" style="fill: none; stroke: #fe9d08; stroke-opacity: 0.5; stroke-width: 1.5; stroke-linecap: square"/>
   </g>
   <g id="line2d_89">
    <path d="M 142.696749 60.797194 
L 143.273123 60.816864 
L 143.849497 60.837446 
L 144.425872 60.858983 
L 145.002246 60.881516 
L 145.57862 60.905091 
L 146.154994 60.929754 
L 146.731369 60.955553 
L 147.307743 60.98254 
L 147.884117 61.010767 
L 148.460491 61.040289 
L 149.036866 61.071163 
L 149.61324 61.103447 
L 150.189614 61.137204 
L 150.765988 61.172497 
L 151.342363 61.209394 
L 151.918737 61.247962 
L 152.495111 61.288275 
L 153.071485 61.330405 
L 153.647859 61.374431 
L 154.224234 61.420432 
L 154.800608 61.468491 
L 155.376982 61.518693 
L 155.953356 61.571128 
L 156.529731 61.625886 
L 157.106105 61.683063 
L 157.682479 61.742757 
L 158.258853 61.805068 
L 158.835228 61.8701 
L 159.411602 61.937961 
L 159.987976 62.008761 
L 160.56435 62.082613 
L 161.140725 62.159634 
L 161.717099 62.239944 
L 162.293473 62.323665 
L 162.869847 62.410923 
L 163.446221 62.501846 
L 164.022596 62.596565 
L 164.59897 62.695215 
L 165.175344 62.797931 
L 165.751718 62.904853 
L 166.328093 63.01612 
L 166.904467 63.131876 
L 167.480841 63.252265 
L 168.057215 63.377432 
L 168.63359 63.507523 
L 169.209964 63.642688 
L 169.786338 63.783072 
L 170.362712 63.928823 
L 170.939087 64.080089 
L 171.515461 64.237014 
L 172.091835 64.399745 
L 172.668209 64.568422 
L 173.244583 64.743185 
L 173.820958 64.92417 
L 174.397332 65.111509 
L 174.973706 65.305329 
L 175.55008 65.505752 
L 176.126455 65.712893 
L 176.702829 65.926859 
L 177.279203 66.147751 
L 177.855577 66.375661 
L 178.431952 66.610668 
L 179.008326 66.852845 
L 179.5847 67.10225 
L 180.161074 67.358929 
L 180.737448 67.622916 
L 181.313823 67.89423 
L 181.890197 68.172873 
L 182.466571 68.458834 
L 183.042945 68.752083 
L 183.61932 69.052572 
L 184.195694 69.360237 
L 184.772068 69.674992 
L 185.348442 69.996734 
L 185.924817 70.325338 
L 186.501191 70.660659 
L 187.077565 71.002531 
L 187.653939 71.350769 
L 188.230314 71.705163 
L 188.806688 72.065486 
L 189.383062 72.431488 
L 189.959436 72.8029 
L 190.53581 73.179431 
L 191.112185 73.560773 
L 191.688559 73.946598 
L 192.264933 74.336562 
L 192.841307 74.730303 
L 193.417682 75.127444 
L 193.994056 75.527595 
L 194.57043 75.930353 
L 195.146804 76.335303 
L 195.723179 76.742022 
L 196.299553 77.150079 
L 196.875927 77.559038 
L 197.452301 77.968458 
L 198.028676 78.377896 
L 198.60505 78.78691 
L 199.181424 79.19506 
L 199.757798 79.601907 
" clip-path="url(#p2447e607b4)" style="fill: none; stroke: #f08080; stroke-opacity: 0.5; stroke-width: 1.5; stroke-linecap: square"/>
   </g>
   <g id="line2d_90">
    <path d="M 142.696749 56.091403 
L 143.273123 56.113784 
L 143.849497 56.137209 
L 144.425872 56.161723 
L 145.002246 56.187378 
L 145.57862 56.214225 
L 146.154994 56.242317 
L 146.731369 56.271712 
L 147.307743 56.302467 
L 147.884117 56.334643 
L 148.460491 56.368305 
L 149.036866 56.403518 
L 149.61324 56.440351 
L 150.189614 56.478877 
L 150.765988 56.519169 
L 151.342363 56.561307 
L 151.918737 56.60537 
L 152.495111 56.651442 
L 153.071485 56.699612 
L 153.647859 56.749969 
L 154.224234 56.802608 
L 154.800608 56.857627 
L 155.376982 56.915127 
L 155.953356 56.975213 
L 156.529731 57.037994 
L 157.106105 57.103584 
L 157.682479 57.172099 
L 158.258853 57.24366 
L 158.835228 57.318392 
L 159.411602 57.396425 
L 159.987976 57.477891 
L 160.56435 57.562929 
L 161.140725 57.65168 
L 161.717099 57.744291 
L 162.293473 57.840912 
L 162.869847 57.941697 
L 163.446221 58.046807 
L 164.022596 58.156403 
L 164.59897 58.270653 
L 165.175344 58.389729 
L 165.751718 58.513805 
L 166.328093 58.643061 
L 166.904467 58.777679 
L 167.480841 58.917844 
L 168.057215 59.063746 
L 168.63359 59.215577 
L 169.209964 59.37353 
L 169.786338 59.537803 
L 170.362712 59.708593 
L 170.939087 59.886101 
L 171.515461 60.070527 
L 172.091835 60.262073 
L 172.668209 60.460939 
L 173.244583 60.667326 
L 173.820958 60.881431 
L 174.397332 61.103453 
L 174.973706 61.333583 
L 175.55008 61.572012 
L 176.126455 61.818925 
L 176.702829 62.074502 
L 177.279203 62.338914 
L 177.855577 62.612328 
L 178.431952 62.8949 
L 179.008326 63.186777 
L 179.5847 63.488094 
L 180.161074 63.798976 
L 180.737448 64.119532 
L 181.313823 64.449857 
L 181.890197 64.790033 
L 182.466571 65.140121 
L 183.042945 65.500166 
L 183.61932 65.870192 
L 184.195694 66.250203 
L 184.772068 66.640181 
L 185.348442 67.040086 
L 185.924817 67.449852 
L 186.501191 67.869388 
L 187.077565 68.298578 
L 187.653939 68.737279 
L 188.230314 69.185321 
L 188.806688 69.642504 
L 189.383062 70.108603 
L 189.959436 70.583361 
L 190.53581 71.066494 
L 191.112185 71.557691 
L 191.688559 72.056609 
L 192.264933 72.56288 
L 192.841307 73.076109 
L 193.417682 73.595874 
L 193.994056 74.121727 
L 194.57043 74.653197 
L 195.146804 75.189793 
L 195.723179 75.730998 
L 196.299553 76.276281 
L 196.875927 76.825092 
L 197.452301 77.376865 
L 198.028676 77.931025 
L 198.60505 78.486982 
L 199.181424 79.044143 
L 199.757798 79.601907 
" clip-path="url(#p2447e607b4)" style="fill: none; stroke: #b22222; stroke-opacity: 0.5; stroke-width: 1.5; stroke-linecap: square"/>
   </g>
   <g id="line2d_91">
    <path d="M 142.696749 22.101514 
L 143.273123 22.318679 
L 143.849497 22.544654 
L 144.425872 22.779727 
L 145.002246 23.024187 
L 145.57862 23.278328 
L 146.154994 23.542446 
L 146.731369 23.816836 
L 147.307743 24.101796 
L 147.884117 24.397621 
L 148.460491 24.704607 
L 149.036866 25.023045 
L 149.61324 25.353226 
L 150.189614 25.695433 
L 150.765988 26.049945 
L 151.342363 26.417034 
L 151.918737 26.796961 
L 152.495111 27.18998 
L 153.071485 27.596332 
L 153.647859 28.016245 
L 154.224234 28.449932 
L 154.800608 28.897589 
L 155.376982 29.359395 
L 155.953356 29.835508 
L 156.529731 30.326063 
L 157.106105 30.831174 
L 157.682479 31.350926 
L 158.258853 31.885379 
L 158.835228 32.434563 
L 159.411602 32.998476 
L 159.987976 33.577085 
L 160.56435 34.170322 
L 161.140725 34.778081 
L 161.717099 35.400221 
L 162.293473 36.036562 
L 162.869847 36.686885 
L 163.446221 37.350927 
L 164.022596 38.028388 
L 164.59897 38.718923 
L 165.175344 39.422146 
L 165.751718 40.137628 
L 166.328093 40.864899 
L 166.904467 41.603448 
L 167.480841 42.352721 
L 168.057215 43.112125 
L 168.63359 43.88103 
L 169.209964 44.658769 
L 169.786338 45.444639 
L 170.362712 46.237906 
L 170.939087 47.037804 
L 171.515461 47.843542 
L 172.091835 48.654304 
L 172.668209 49.469252 
L 173.244583 50.28753 
L 173.820958 51.108269 
L 174.397332 51.930589 
L 174.973706 52.753604 
L 175.55008 53.576423 
L 176.126455 54.398157 
L 176.702829 55.217923 
L 177.279203 56.034843 
L 177.855577 56.848055 
L 178.431952 57.656711 
L 179.008326 58.459981 
L 179.5847 59.257061 
L 180.161074 60.047169 
L 180.737448 60.829553 
L 181.313823 61.603494 
L 181.890197 62.368303 
L 182.466571 63.12333 
L 183.042945 63.867959 
L 183.61932 64.601616 
L 184.195694 65.323767 
L 184.772068 66.033916 
L 185.348442 66.731612 
L 185.924817 67.416445 
L 186.501191 68.088048 
L 187.077565 68.746094 
L 187.653939 69.390301 
L 188.230314 70.020425 
L 188.806688 70.636264 
L 189.383062 71.237655 
L 189.959436 71.824472 
L 190.53581 72.396628 
L 191.112185 72.95407 
L 191.688559 73.496777 
L 192.264933 74.024763 
L 192.841307 74.53807 
L 193.417682 75.036771 
L 193.994056 75.520963 
L 194.57043 75.990769 
L 195.146804 76.446335 
L 195.723179 76.887828 
L 196.299553 77.315435 
L 196.875927 77.729361 
L 197.452301 78.129823 
L 198.028676 78.517058 
L 198.60505 78.89131 
L 199.181424 79.252837 
L 199.757798 79.601907 
" clip-path="url(#p2447e607b4)" style="fill: none; stroke: #ff0000; stroke-opacity: 0.5; stroke-width: 1.5; stroke-linecap: square"/>
   </g>
   <g id="LineCollection_7">
    <path d="M 191.169255 85.838127 
L 191.169255 20.357812 
" clip-path="url(#p2447e607b4)" style="fill: none; stroke: #000000; stroke-width: 1.5"/>
   </g>
   <g id="LineCollection_8">
    <path d="M 143.877704 85.838127 
L 143.877704 20.357812 
" clip-path="url(#p2447e607b4)" style="fill: none; stroke: #808080; stroke-width: 1.5"/>
   </g>
   <g id="LineCollection_9">
    <path d="M 149.198476 85.838127 
L 149.198476 20.357812 
" clip-path="url(#p2447e607b4)" style="fill: none; stroke: #d3d3d3; stroke-width: 1.5"/>
   </g>
   <g id="patch_14">
    <path d="M 139.843697 85.838127 
L 139.843697 20.357812 
" style="fill: none; stroke: #000000; stroke-width: 0.8; stroke-linejoin: miter; stroke-linecap: square"/>
   </g>
   <g id="patch_15">
    <path d="M 202.610851 85.838127 
L 202.610851 20.357812 
" style="fill: none; stroke: #000000; stroke-width: 0.8; stroke-linejoin: miter; stroke-linecap: square"/>
   </g>
   <g id="patch_16">
    <path d="M 139.843697 85.838127 
L 202.610851 85.838127 
" style="fill: none; stroke: #000000; stroke-width: 0.8; stroke-linejoin: miter; stroke-linecap: square"/>
   </g>
   <g id="patch_17">
    <path d="M 139.843697 20.357812 
L 202.610851 20.357812 
" style="fill: none; stroke: #000000; stroke-width: 0.8; stroke-linejoin: miter; stroke-linecap: square"/>
   </g>
   <g id="text_35">
    <!-- Risk Ratio -->
    <g transform="translate(148.444461 14.357812) scale(0.1 -0.1)">
     <use xlink:href="#ArialMT-52"/>
     <use xlink:href="#ArialMT-69" x="72.216797"/>
     <use xlink:href="#ArialMT-73" x="94.433594"/>
     <use xlink:href="#ArialMT-6b" x="144.433594"/>
     <use xlink:href="#ArialMT-20" x="194.433594"/>
     <use xlink:href="#ArialMT-52" x="222.216797"/>
     <use xlink:href="#ArialMT-61" x="294.433594"/>
     <use xlink:href="#ArialMT-74" x="350.048828"/>
     <use xlink:href="#ArialMT-69" x="377.832031"/>
     <use xlink:href="#ArialMT-6f" x="400.048828"/>
    </g>
   </g>
  </g>
 </g>
 <defs>
  <clipPath id="pd89ed706f0">
   <rect x="39.41625" y="20.357812" width="62.767154" height="65.480315"/>
  </clipPath>
  <clipPath id="p7f21580c72">
   <rect x="240.271143" y="20.357812" width="62.767154" height="65.480315"/>
  </clipPath>
  <clipPath id="p2447e607b4">
   <rect x="139.843697" y="20.357812" width="62.767154" height="65.480315"/>
  </clipPath>
 </defs>
</svg>
